<?xml version="1.0" encoding="iso-8859-1"?>
<!-- Generator: Adobe Illustrator 19.0.0, SVG Export Plug-In . SVG Version: 6.00 Build 0)  -->
<svg version="1.1" id="Capa_1" xmlns="http://www.w3.org/2000/svg" xmlns:xlink="http://www.w3.org/1999/xlink" x="0px" y="0px"
	 viewBox="0 0 436.907 436.907" style="enable-background:new 0 0 436.907 436.907;" xml:space="preserve">
<circle style="fill:#45B39C;" cx="218.453" cy="218.453" r="218.453"/>
<g style="opacity:0.1;">
	<path d="M309.452,114.593c-0.34-0.359-0.703-0.701-1.12-0.995L277.58,91.867c-3.789-2.677-9.269-1.44-12.24,2.764l-14.098,19.95
		l-11.037,15.618L134.737,278.675l-9.501,67.779l90.382,90.382c0.948,0.012,1.885,0.072,2.836,0.072
		c113.076,0,206.083-85.913,217.314-196.024L309.465,114.581L309.452,114.593z M284.785,138.284l-11.661-8.24L284.785,138.284
		L284.785,138.284z"/>
</g>
<polygon style="fill:#F6C358;" points="134.737,278.675 179.209,310.102 284.679,161.627 240.206,130.199 "/>
<polygon style="fill:#FCD462;" points="156.382,293.97 179.209,310.102 284.679,161.627 261.851,145.495 "/>
<rect x="240.721" y="128.535" transform="matrix(0.8167 0.5771 -0.5771 0.8167 128.8212 -129.3178)" style="fill:#E1E6E9;" width="54.456" height="19.125"/>
<rect x="243.27" y="120.554" transform="matrix(0.8167 0.5771 -0.5771 0.8167 122.1466 -124.2706)" style="fill:#D5D6DB;" width="26.795" height="19.125"/>
<path style="fill:#E56353;" d="M277.58,91.867l30.752,21.731c3.789,2.677,4.452,8.256,1.481,12.46l-14.098,19.95l-44.473-31.427
	l14.098-19.95C268.311,90.427,273.791,89.19,277.58,91.867z"/>
<path style="fill:#D15241;" d="M277.58,91.867l15.613,11.033l-19.477,27.562l-22.473-15.881l14.098-19.95
	C268.311,90.427,273.791,89.19,277.58,91.867z"/>
<polyline style="fill:#D5D6DB;" points="134.737,278.675 125.236,346.453 179.209,310.102 "/>
<polygon style="fill:#E1E6E9;" points="179.209,310.102 125.236,346.453 156.382,293.97 "/>
<polygon style="fill:#3A556A;" points="125.236,346.453 142.916,334.546 128.348,324.251 "/>
<g>
</g>
<g>
</g>
<g>
</g>
<g>
</g>
<g>
</g>
<g>
</g>
<g>
</g>
<g>
</g>
<g>
</g>
<g>
</g>
<g>
</g>
<g>
</g>
<g>
</g>
<g>
</g>
<g>
</g>
</svg>
