<svg fill='#555c66' xmlns="http://www.w3.org/2000/svg" xmlns:xlink="http://www.w3.org/1999/xlink" version="1.1" id="svg-d2f9" x="0px" y="0px" viewBox="0 0 512 512" style="enable-background:new 0 0 512 512;" xml:space="preserve" class="u-svg-content"><g><g><path d="M439.965,443.599c0-18.493-15.045-33.539-33.54-33.539h-83.79c-4.513,0-8.17,3.658-8.17,8.17s3.657,8.17,8.17,8.17h83.79    c9.484,0,17.2,7.716,17.2,17.2c0,1.912-0.331,3.777-0.932,5.544c-4.822-2.686-10.367-4.222-16.267-4.222H291.988    c7.69-12.877,6-29.838-5.078-40.915l-96.047-96.047c-13.864-13.865-40.083-24.725-59.689-24.725H13.55    c-4.512,0-8.17,3.658-8.17,8.17c0,4.512,3.658,8.17,8.17,8.17h117.623c15.284,0,37.327,9.13,48.136,19.938l96.046,96.047    c6.706,6.706,6.706,17.617,0,24.323c-6.704,6.706-17.617,6.706-24.323,0l-78.059-78.059c-3.191-3.191-8.364-3.191-11.554,0    c-3.191,3.191-3.191,8.364,0,11.554l78.059,78.059c6.387,6.387,14.729,9.645,23.117,9.793c0.198,0.014,0.397,0.031,0.598,0.031    h143.231c9.484,0,17.2,7.716,17.2,17.199c0,9.484-7.716,17.2-17.192,17.2l-159.942-0.142c-4.342-0.003-11.711-1.924-15.577-4.047    L68.335,391.074c-0.095-0.059-0.191-0.115-0.289-0.17c-6.294-3.539-16.485-6.207-23.707-6.207H13.55    c-4.512,0-8.17,3.658-8.17,8.17c0,4.512,3.658,8.17,8.17,8.17h30.789c4.341,0,11.705,1.915,15.569,4.038l162.578,100.397    c0.095,0.059,0.192,0.115,0.289,0.171c6.292,3.537,16.481,6.209,23.7,6.216L406.425,512c18.495,0,33.54-15.046,33.54-33.54    c0-6.376-1.79-12.341-4.891-17.423C438.254,455.825,439.965,449.826,439.965,443.599z"></path>
</g>
</g><g><g><path d="M355.625,0c-83.259,0-150.994,67.737-150.994,150.995c0,53.16,28.192,102.6,73.785,129.78l14.571,40.827v31.267    c0,18.83,14.18,36.984,14.783,37.747c1.55,1.96,3.911,3.104,6.41,3.104h82.892c2.499,0,4.86-1.144,6.41-3.104    c0.604-0.764,14.783-18.918,14.783-37.747v-31.268l14.572-40.827c45.594-27.18,73.785-76.62,73.785-129.78    C506.621,67.736,438.885,0,355.625,0z M392.866,377.379h-74.495c-2.583-3.908-5.973-9.992-7.779-16.34h90.055    C398.832,367.368,395.443,373.463,392.866,377.379z M401.923,344.698h-92.596v-16.34h92.596V344.698z M422.104,268.117    c-1.701,0.967-2.997,2.513-3.654,4.355l-14.115,39.546h-97.419l-14.114-39.546c-0.658-1.842-1.954-3.388-3.654-4.355    c-42.054-23.924-68.177-68.802-68.177-117.122C220.971,76.747,281.376,16.34,355.625,16.34S490.28,76.747,490.28,150.995    C490.281,199.315,464.157,244.193,422.104,268.117z"></path>
</g>
</g><g><g><path d="M409.558,161.147c-15.643-11.763-34.292-17.981-53.932-17.981c-19.605,0-38.247,6.226-53.914,18.005    c-2.858,2.15-3.986,5.909-2.784,9.278l26.739,74.896v42.162c0,4.512,3.657,8.17,8.17,8.17c4.513,0,8.17-3.658,8.17-8.17v-35.404    h27.234v35.404c0,4.512,3.657,8.17,8.17,8.17c4.513,0,8.17-3.658,8.17-8.17v-42.155l26.759-74.927    C413.544,167.057,412.417,163.296,409.558,161.147z M369.242,235.762h-27.234v-2.723c0-7.509,6.109-13.617,13.618-13.617    c7.508,0,13.616,6.108,13.616,13.617V235.762z M379.213,214.603c-5.488-7.007-14.017-11.522-23.587-11.522    c-9.568,0-18.096,4.514-23.585,11.518l-15.619-43.749c11.727-7.439,25.164-11.344,39.204-11.344    c14.067,0,27.51,3.897,39.221,11.32L379.213,214.603z"></path>
</g>
</g><g></g><g></g><g></g><g></g><g></g><g></g><g></g><g></g><g></g><g></g><g></g><g></g><g></g><g></g><g></g></svg>