

<svg fill='#654aff' xmlns="http://www.w3.org/2000/svg" class="u-svg-content" viewBox="0 0 512.158 512.158" id="svg-6873"><g><path d="m255.553 62.311c-30.324 0-54.994 24.619-54.994 54.881s24.67 54.882 54.994 54.882 54.994-24.62 54.994-54.882-24.67-54.881-54.994-54.881zm0 79.824c-13.782 0-24.994-11.189-24.994-24.943s11.212-24.942 24.994-24.942 24.994 11.189 24.994 24.942-11.212 24.943-24.994 24.943z"></path><path d="m431.706 24.558c-46.875-15.797-109.067-24.496-175.119-24.496-66.109 0-128.473 8.691-175.6 24.473-66.936 22.415-80.987 51.198-80.987 71.397v338.286c0 22.847 16.26 38.811 29.899 48.18 16.846 11.571 41.195 21.402 72.374 29.222 8.537 2.418 19.016-4.69 18.656-14.518v-114.41c22.131-5.141 47.296-9.095 73.696-11.568 1.976.83 4.019 1.536 6.124 2.093v80.89c0 31.945 26.043 57.935 58.055 57.935 32.011 0 58.054-25.99 58.054-57.935v-81.767c.932-.314 1.847-.663 2.751-1.034 25.328 2.46 49.782 6.356 71.617 11.396v113.343c-.165 8.896 8.998 17.217 18.656 14.518 31.179-7.82 55.528-17.652 72.373-29.223 13.64-9.369 29.899-25.333 29.899-48.18l.004-337.202c0-20.205-13.958-48.994-80.452-71.4zm-340.776 452.795c-38.505-12.039-60.93-27.697-60.93-43.135v-290.371c13.76 9.571 33.354 18.794 60.93 26.809zm230.946-244.806c-.005.082-.008.165-.011.248l-3.287 96.295c-.504 8.848-7.828 15.763-16.721 15.763-8.284 0-15 6.702-15 14.969v92.665c0 15.437-12.585 27.996-28.054 27.996-15.47 0-28.055-12.559-28.055-27.996v-92.665c0-8.267-6.716-14.969-15-14.969h-2.822c-2.897 0-5.614-.733-7.991-2.013-.113-.065-.226-.128-.341-.19-4.561-2.595-7.779-7.267-8.334-12.856l-5.767-96.434c-.009-.144-.02-.287-.032-.43-.345-3.886 1.504-6.538 2.637-7.774s3.618-3.308 7.528-3.308h111.057c2.824 0 5.451 1.125 7.396 3.167 1.946 2.043 2.94 4.718 2.797 7.532zm160.278 200.613c0 15.438-22.424 31.096-60.929 43.135v-305.396c27.576-7.951 47.172-17.16 60.932-26.749zm-79.656-288.197c-6.141 1.567-11.405 7.501-11.272 14.5v192.564c-14.371-3.101-29.66-5.738-45.462-7.844 1.573-4.295 2.538-8.889 2.781-13.687.005-.082.008-.164.011-.247l3.288-96.327c.515-10.881-3.498-21.638-11.021-29.535-7.554-7.931-18.175-12.479-29.14-12.479h-111.056c-11.252 0-22.062 4.751-29.658 13.033-7.541 8.222-11.328 19.286-10.41 30.388l5.771 96.495c.009.144.02.287.032.43.36 4.056 1.228 7.94 2.524 11.604-16.812 2.16-32.948 4.902-47.956 8.151v-192.761c.002-6.33-4.442-12.869-11.235-14.49-58.759-15.202-79.695-35.19-79.695-48.826 0-7.626 7.236-14.956 13.308-19.763 10.649-8.431 26.979-16.472 47.224-23.251 44.132-14.778 103.105-22.917 166.056-22.917 62.874 0 121.657 8.141 165.521 22.921 44.274 14.92 60.05 32.013 60.05 43.036-.001 13.831-20.928 33.967-79.661 49.005z"></path>
</g></svg>