<svg fill='#654aff' xmlns="http://www.w3.org/2000/svg" class="u-svg-content" viewBox="0 0 512 512" id="svg-4501"><g><path d="m447 211h-6v-45c0-8.284-6.716-15-15-15s-15 6.716-15 15v45h-346c-35.841 0-65 29.159-65 65v140c0 35.841 29.159 65 65 65h117.148c20.659 0 38.965-12.394 46.637-31.575 4.478-11.193 15.16-18.425 27.215-18.425s22.737 7.232 27.214 18.426c7.673 19.18 25.979 31.574 46.638 31.574h117.148c35.841 0 65-29.159 65-65v-140c0-35.841-29.159-65-65-65zm35 205c0 19.299-15.701 35-35 35h-117.148c-8.32 0-15.693-4.991-18.783-12.716-9.059-22.649-30.675-37.284-55.069-37.284s-46.01 14.635-55.069 37.283c-3.09 7.726-10.463 12.717-18.783 12.717h-117.148c-19.299 0-35-15.701-35-35v-140c0-19.299 15.701-35 35-35h382c19.299 0 35 15.701 35 35z"></path><circle cx="256" cy="286" r="15"></circle><circle cx="316" cy="286" r="15"></circle><circle cx="196" cy="286" r="15"></circle><circle cx="256" cy="165.943" r="15"></circle><path d="m181.754 91.697c19.795-19.796 46.163-30.697 74.246-30.697s54.451 10.901 74.246 30.697c2.93 2.93 6.768 4.394 10.607 4.394 3.838 0 7.678-1.465 10.606-4.394 5.858-5.857 5.858-15.355 0-21.213-25.461-25.462-59.362-39.484-95.459-39.484s-69.998 14.022-95.46 39.484c-5.857 5.857-5.857 15.355 0 21.213 5.858 5.858 15.356 5.858 21.214 0z"></path><path d="m298.426 138.517c3.838 0 7.678-1.465 10.606-4.394 5.858-5.857 5.858-15.355 0-21.213-14.166-14.166-33-21.967-53.033-21.967s-38.868 7.801-53.033 21.967c-5.857 5.857-5.857 15.355 0 21.213 5.857 5.857 15.355 5.857 21.213 0 8.499-8.499 19.799-13.18 31.819-13.18s23.32 4.681 31.819 13.18c2.932 2.93 6.77 4.394 10.609 4.394z"></path>
</g></svg>