<svg fill="#fff" xmlns="http://www.w3.org/2000/svg" xmlns:xlink="http://www.w3.org/1999/xlink" version="1.1" xml:space="preserve" class="u-svg-content" viewBox="0 0 512 512" x="0px" y="0px" id="svg-4777" style="enable-background:new 0 0 512 512;"><g><g><path d="M477.626,230.931c-21.458-21.851-49.904-34.501-80.375-35.812C397.107,193.215,397,190.591,397,187    c0-14.712,11.188-59.665,18.241-84.544L422.458,77h-87.584l-5.867,9.453C326.68,90.203,272,179.852,272,315    c0,66.168,53.832,120,120,120s120-53.832,120-120C512,283.359,499.792,253.503,477.626,230.931z M392,395    c-44.112,0-80-35.888-80-80c0-99.32,32.836-172.834,45.812-198h12.129C364.194,139.584,357,171.041,357,187    c0,12.664,0.94,22.838,5.531,31.33c4.089,7.564,12.641,16.573,30.183,16.669l0.873,0.022C436.824,235.859,472,271.737,472,315    C472,359.112,436.112,395,392,395z"></path>
</g>
</g><g><g><path d="M205.626,230.931c-21.458-21.851-49.904-34.501-80.375-35.812C125.107,193.215,125,190.591,125,187    c0-14.712,11.188-59.665,18.241-84.544L150.458,77H62.874l-5.867,9.453C54.68,90.203,0,179.852,0,315c0,66.168,53.832,120,120,120    s120-53.832,120-120C240,283.359,227.792,253.503,205.626,230.931z M120,395c-44.112,0-80-35.888-80-80    c0-99.32,32.836-172.834,45.812-198h12.129C92.194,139.584,85,171.041,85,187c0,12.664,0.94,22.838,5.531,31.33    c4.089,7.564,12.641,16.573,30.183,16.669l0.873,0.022C164.824,235.859,200,271.737,200,315C200,359.112,164.112,395,120,395z"></path>
</g>
</g></svg>