<svg width="60" height="60" viewBox="0 0 60 60" fill="none" xmlns="http://www.w3.org/2000/svg">
<path fill-rule="evenodd" clip-rule="evenodd" d="M29.433 10C20.5638 10 14.1571 16.7656 13.1409 24.0326C12.5071 28.877 14.0374 33.5991 17.2165 37.1714C20.014 40.2299 21.5437 44.3163 21.5437 48.5248L21.532 55.1554C21.532 57.8346 23.6957 60 26.373 60H32.6127C35.2899 60 37.4536 57.8346 37.4536 55.1554L37.4658 48.5248C37.4658 44.194 38.8642 40.2299 41.5414 37.4282C44.4703 34.3697 46 30.4183 46 26.3324C45.9883 17.2669 38.4696 10 29.433 10ZM35.0272 55.1554C35.0272 56.4279 34.0112 57.4552 32.7318 57.4552H26.4925C25.2138 57.4552 24.1976 56.4398 24.1976 55.1554V52.2194H35.015V55.1554H35.0272ZM39.7607 35.6422C36.581 38.9574 34.9194 43.5451 34.9194 48.5248V49.6746H24.1018V48.5248C24.1018 43.802 22.1893 39.0925 19.0095 35.5203C16.2127 32.4619 15.0652 28.5097 15.5671 24.4237C16.4636 18.3068 22.0217 12.5573 29.4446 12.5573C37.2142 12.5573 43.4541 18.8087 43.4541 26.3324C43.4541 29.7701 42.1753 33.0855 39.7607 35.6422Z" fill="url(#paint0_linear_0_62)"/>
<path fill-rule="evenodd" clip-rule="evenodd" d="M28 6H31V0H28V6Z" fill="url(#paint1_linear_0_62)"/>
<path fill-rule="evenodd" clip-rule="evenodd" d="M45 12.2123L46.7391 14L51 9.7883L49.2489 8L45 12.2123Z" fill="url(#paint2_linear_0_62)"/>
<mask id="mask0_0_62" style="mask-type:alpha" maskUnits="userSpaceOnUse" x="0" y="27" width="60" height="3">
<path fill-rule="evenodd" clip-rule="evenodd" d="M0.00918579 27.0283H60V29.9787H0.00918579V27.0283Z" fill="white"/>
</mask>
<g mask="url(#mask0_0_62)">
<path fill-rule="evenodd" clip-rule="evenodd" d="M53.6078 29.9787H60V27.0283H53.6078V29.9787Z" fill="url(#paint3_linear_0_62)"/>
<path fill-rule="evenodd" clip-rule="evenodd" d="M0.00918579 29.9787H6.39215V27.0283H0.00918579V29.9787Z" fill="url(#paint4_linear_0_62)"/>
</g>
<path fill-rule="evenodd" clip-rule="evenodd" d="M9.7511 8L8 9.7877L12.2609 14L14 12.2117L9.7511 8Z" fill="url(#paint5_linear_0_62)"/>
<defs>
<linearGradient id="paint0_linear_0_62" x1="13.5845" y1="11.7714" x2="13.5845" y2="60" gradientUnits="userSpaceOnUse">
<stop stop-color="#FF955D"/>
<stop offset="1" stop-color="#FF4CAB"/>
</linearGradient>
<linearGradient id="paint1_linear_0_62" x1="28.0531" y1="0.212563" x2="28.0531" y2="6" gradientUnits="userSpaceOnUse">
<stop stop-color="#FF955D"/>
<stop offset="1" stop-color="#FF4CAB"/>
</linearGradient>
<linearGradient id="paint2_linear_0_62" x1="45.1063" y1="8.21256" x2="45.1063" y2="14" gradientUnits="userSpaceOnUse">
<stop stop-color="#FF955D"/>
<stop offset="1" stop-color="#FF4CAB"/>
</linearGradient>
<linearGradient id="paint3_linear_0_62" x1="53.7211" y1="27.1328" x2="53.7211" y2="29.9787" gradientUnits="userSpaceOnUse">
<stop stop-color="#FF955D"/>
<stop offset="1" stop-color="#FF4CAB"/>
</linearGradient>
<linearGradient id="paint4_linear_0_62" x1="0.122251" y1="27.1328" x2="0.122251" y2="29.9787" gradientUnits="userSpaceOnUse">
<stop stop-color="#FF955D"/>
<stop offset="1" stop-color="#FF4CAB"/>
</linearGradient>
<linearGradient id="paint5_linear_0_62" x1="8.10628" y1="8.21256" x2="8.10628" y2="14" gradientUnits="userSpaceOnUse">
<stop stop-color="#FF955D"/>
<stop offset="1" stop-color="#FF4CAB"/>
</linearGradient>
</defs>
</svg>
