<svg fill='#fff' xmlns="http://www.w3.org/2000/svg" viewBox="0 -96 464 464" id="svg-c4ab" class="u-svg-content"><path d="m143.246094 5.511719-9.183594-3.046875-28.902344 144.527344 176.441406 69.007812h174.398438c4.417969 0 8-3.582031 8-8v-40c0-4.417969-3.582031-8-8-8h-56.503906c-2.046875 0-4.015625-.785156-5.503906-2.191406l-35.199219-33.328125-17.175781 17.175781c-3.140626 3.03125-8.128907 2.988281-11.214844-.097656-3.085938-3.085938-3.128906-8.074219-.097656-11.214844l16.894531-16.871094-13.007813-12.351562-16.535156 16.535156c-3.140625 3.03125-8.128906 2.988281-11.214844-.097656-3.085937-3.085938-3.128906-8.074219-.097656-11.214844l16.230469-16.230469-13.03125-12.34375-15.886719 15.886719c-3.140625 3.03125-8.128906 2.988281-11.214844-.097656-3.085937-3.085938-3.128906-8.074219-.097656-11.214844l15.585938-15.582031-37.175782-35.25-9.378906 42.175781c-1.402344 6.324219-5.296875 11.808594-10.804688 15.214844-5.507812 3.40625-12.160156 4.441406-18.441406 2.875l-66.304687-16.578125c-11.777344-2.941407-19.503907-14.210938-18-26.253907zm0 0"></path><path d="m77.167969 188.351562 204.121093 67.648438h182.710938v-24h-184c-.996094 0-1.984375-.183594-2.910156-.542969l-178.523438-69.855469zm0 0"></path><path d="m48 16h48c4.417969 0 8-3.582031 8-8s-3.582031-8-8-8h-48c-4.417969 0-8 3.582031-8 8s3.582031 8 8 8zm0 0"></path><path d="m8 16h8c4.417969 0 8-3.582031 8-8s-3.582031-8-8-8h-8c-4.417969 0-8 3.582031-8 8s3.582031 8 8 8zm0 0"></path><path d="m8 64h80c4.417969 0 8-3.582031 8-8s-3.582031-8-8-8h-80c-4.417969 0-8 3.582031-8 8s3.582031 8 8 8zm0 0"></path><path d="m152 256h-144c-4.417969 0-8 3.582031-8 8s3.582031 8 8 8h144c4.417969 0 8-3.582031 8-8s-3.582031-8-8-8zm0 0"></path><path d="m8 232h8c4.417969 0 8-3.582031 8-8s-3.582031-8-8-8h-8c-4.417969 0-8 3.582031-8 8s3.582031 8 8 8zm0 0"></path><path d="m40 232h48c4.417969 0 8-3.582031 8-8s-3.582031-8-8-8h-48c-4.417969 0-8 3.582031-8 8s3.582031 8 8 8zm0 0"></path></svg>