<svg fill="#fff" xmlns="http://www.w3.org/2000/svg" viewBox="0 0 512.00104 512" id="svg-4397" class="u-svg-content"><path d="m512 256c0 27.960938-4.484375 54.867188-12.769531 80.058594-.082031.261718-.167969.511718-.25.773437-.167969.492188-.324219.980469-.5 1.460938-.554688 1.664062-1.140625 3.3125-1.734375 4.964843-1.808594 4.996094-3.773438 9.917969-5.882813 14.753907-.03125.082031-.074219.167969-.105469.25-2.914062 6.6875-6.113281 13.21875-9.5625 19.59375-1.867187 3.445312-3.8125 6.84375-5.839843 10.1875-44.804688 74.28125-126.273438 123.953125-219.355469 123.953125-93.078125 0-174.546875-49.671875-219.351562-123.953125-2.027344-3.34375-3.972657-6.742188-5.84375-10.1875-3.445313-6.375-6.644532-12.90625-9.558594-19.59375-1.785156-4.085938-3.457032-8.222657-5.027344-12.421875-.929688-2.46875-1.816406-4.964844-2.671875-7.472656-.222656-.65625-.441406-1.316407-.660156-1.972657-.28125-.867187-.5625-1.746093-.847657-2.625-.238281-.75-.480468-1.503906-.710937-2.257812-7.363281-23.863281-11.32421875-49.234375-11.32421875-75.511719 0-141.386719 114.61328175-256 255.99609375-256 141.386719 0 256 114.613281 256 256zm0 0" fill="#3fb777"></path><path d="m489.023438 330.101562v21.597657c-25.222657 55.285156-69.539063 100.015625-124.511719 125.785156-9.957031 4.660156-20.269531 8.703125-30.886719 12.066406-11.941406 3.816407-24.261719 6.75-36.902344 8.769531-.054687.007813-.117187 10.46875-.167968 10.46875v-178.6875c0-38.085937 29.328124-69.328124 66.652343-72.335937 1.964844-.167969 3.941407-.242187 5.933594-.242187h47.273437c5.589844 0 11.035157.617187 16.257813 1.820312 32.265625 7.375 56.351563 36.265625 56.351563 70.757812zm0 0" fill="#bfd5de"></path><path d="m488.929688 326.289062h-155.210938c1.996094-38.316406 33.699219-68.765624 72.507812-68.765624h10.195313c38.820313 0 70.511719 30.449218 72.507813 68.765624zm0 0" fill="#dde8ed"></path><path d="m321.738281 177.464844c0 11.988281-8.761719 21.929687-20.230469 23.777344-1.25.203124-2.542968.308593-3.855468.308593-13.308594 0-24.085938-10.78125-24.085938-24.085937 0-13.304688 10.777344-24.085938 24.085938-24.085938 1.3125 0 2.605468.105469 3.855468.308594 11.46875 1.847656 20.230469 11.789062 20.230469 23.777344zm0 0" fill="#d3a489"></path><path d="m412.273438 283.710938-19.488282 31.253906-19.484375-31.253906" fill="#f74f4f"></path><path d="m419.003906 403.261719-26.214844 33.089843-26.226562-33.089843 26.230469-96.429688zm0 0" fill="#f74f4f"></path><path d="m321.738281 177.464844c0 11.988281-8.761719 21.929687-20.230469 23.777344-2.082031-7.578126-3.195312-15.546876-3.195312-23.777344 0-8.226563 1.113281-16.199219 3.195312-23.777344 11.46875 1.847656 20.230469 11.789062 20.230469 23.777344zm0 0" fill="#bf8e75"></path><path d="m306.261719 177.464844c0 4.753906-3.855469 8.609375-8.609375 8.609375s-8.609375-3.855469-8.609375-8.609375 3.855469-8.609375 8.609375-8.609375 8.609375 3.855469 8.609375 8.609375zm0 0" fill="#bf8e75"></path><path d="m392.78125 287.234375-32.683594 18.164063-9.941406-46.242188 20.308594-11.960938" fill="#bfd5de"></path><path d="m392.78125 287.234375 32.679688 18.164063 9.941406-46.242188-20.304688-11.960938" fill="#bfd5de"></path><path d="m463.828125 177.464844c0 11.988281 8.757813 21.929687 20.226563 23.777344 1.253906.203124 2.546874.308593 3.859374.308593 13.308594 0 24.085938-10.78125 24.085938-24.085937 0-13.304688-10.777344-24.085938-24.085938-24.085938-1.3125 0-2.605468.105469-3.859374.308594-11.46875 1.847656-20.226563 11.789062-20.226563 23.777344zm0 0" fill="#d3a489"></path><g fill="#bf8e75"><path d="m463.828125 177.464844c0 11.988281 8.757813 21.929687 20.226563 23.777344 2.085937-7.578126 3.199218-15.546876 3.199218-23.777344 0-8.226563-1.113281-16.199219-3.199218-23.777344-11.46875 1.847656-20.226563 11.789062-20.226563 23.777344zm0 0"></path><path d="m496.523438 177.464844c0 4.753906-3.855469 8.609375-8.609376 8.609375-4.753906 0-8.609374-3.855469-8.609374-8.609375s3.855468-8.609375 8.609374-8.609375c4.753907 0 8.609376 3.855469 8.609376 8.609375zm0 0"></path><path d="m482.398438 164.664062c0 44.59375-32.578126 81.589844-75.230469 88.457032-4.679688.769531-9.484375 1.15625-14.382813 1.15625-49.496094 0-89.617187-40.117188-89.617187-89.613282 0-23.417968 8.136719-58.574218 22.839843-74.539062 16.378907-17.777344 40.699219-15.078125 66.777344-15.078125 4.898438 0 9.703125.390625 14.382813 1.160156 42.652343 6.867188 75.230469 43.859375 75.230469 88.457031zm0 0"></path><path d="m418.683594 229.554688v31.785156c0 11.636718-7.671875 21.472656-18.242188 24.738281-2.417968.75-4.996094 1.15625-7.660156 1.15625-14.304688 0-25.898438-11.589844-25.898438-25.894531v-31.785156zm0 0"></path>
</g><path d="m418.683594 259.328125v2.011719c0 11.636718-7.671875 21.472656-18.242188 24.742187-9.535156-2.933593-16.703125-11.222656-18.027344-21.367187 1.730469.105468 3.46875.160156 5.21875.160156 4.902344 0 9.703126-.390625 14.382813-1.160156 5.765625-.925782 11.335937-2.410156 16.667969-4.386719zm0 0" fill="#d3a489"></path><path d="m482.398438 164.664062c0 44.59375-32.578126 81.589844-75.230469 88.457032-42.65625-6.867188-75.234375-43.863282-75.234375-88.457032 0-27.460937 12.351562-52.039062 31.8125-68.480468 12.128906-10.257813 27.035156-17.339844 43.421875-19.980469 39.765625 6.402344 70.78125 39 74.789062 79.523437.292969 2.941407.441407 5.925782.441407 8.9375zm0 0" fill="#d3a489"></path><path d="m392.785156 208.800781c-7.503906 0-15.007812-1.882812-21.847656-5.640625-1.929688-1.0625-2.636719-3.484375-1.574219-5.414062 1.0625-1.929688 3.484375-2.632813 5.414063-1.574219 11.277344 6.199219 24.738281 6.199219 36.015625 0 1.925781-1.058594 4.351562-.355469 5.414062 1.574219 1.058594 1.929687.355469 4.351562-1.574219 5.414062-6.839843 3.757813-14.34375 5.640625-21.847656 5.640625zm0 0" fill="#bf8e75"></path><path d="m373.699219 159.445312c0 5.617188-4.550781 10.167969-10.164063 10.167969-5.617187 0-10.167968-4.550781-10.167968-10.167969 0-5.613281 4.550781-10.164062 10.167968-10.164062 5.613282 0 10.164063 4.550781 10.164063 10.164062zm0 0" fill="#3d4159"></path><path d="m432.199219 159.445312c0 5.617188-4.550781 10.167969-10.164063 10.167969-5.613281 0-10.167968-4.550781-10.167968-10.167969 0-5.613281 4.554687-10.164062 10.167968-10.164062 5.613282 0 10.164063 4.550781 10.164063 10.164062zm0 0" fill="#3d4159"></path><path d="m371.628906 157.652344c0 2.40625-1.953125 4.355468-4.359375 4.355468s-4.355469-1.949218-4.355469-4.355468 1.949219-4.355469 4.355469-4.355469 4.359375 1.949219 4.359375 4.355469zm0 0" fill="#fff"></path><path d="m430.628906 157.652344c0 2.40625-1.953125 4.355468-4.359375 4.355468s-4.355469-1.949218-4.355469-4.355468 1.949219-4.355469 4.355469-4.355469 4.359375 1.949219 4.359375 4.355469zm0 0" fill="#fff"></path><path d="m402.949219 185.042969h-20.332031c-2.421876 0-4.382813-1.964844-4.382813-4.386719s1.960937-4.382812 4.382813-4.382812h20.332031c2.421875 0 4.386719 1.960937 4.386719 4.382812s-1.964844 4.386719-4.386719 4.386719zm0 0" fill="#bf8e75"></path><path d="m387.539062 49.445312c27.148438 1.941407 48.945313 23.871094 50.324219 51.476563l.257813 5.183594h15.617187l8.410157 55.929687 20.371093-6.304687-2.734375-54.808594c-1.445312-28.996094-25.429687-51.722656-54.453125-51.617187zm0 0" fill="#2a2f4f"></path><path d="m478.058594 27.816406c21.617187 21.617188 21.617187 56.667969 0 78.285156-21.617188 21.617188-56.667969 21.617188-78.285156 0zm0 0" fill="#3d4159"></path><path d="m399.777344 106.101562h-67.941406l-8.414063 55.933594-20.371094-6.304687 2.734375-54.808594c1.441406-28.992187 25.425782-51.726563 54.453125-51.617187l98.121094.371093 12.972656 23.347657" fill="#3d4159"></path><path d="m398.027344 49.445312c-27.144532 1.941407-48.941406 23.871094-50.324219 51.476563l-.257813 5.183594h-15.613281l-8.414062 55.929687-20.371094-6.304687 2.738281-54.808594c1.441406-28.996094 25.425782-51.722656 54.449219-51.617187zm0 0" fill="#2a2f4f"></path><path d="m499.230469 336.058594c-.082031.261718-.167969.511718-.25.773437-.167969.492188-.324219.980469-.5 1.460938l-7.996094-2.253907-12.191406-15.675781 6.8125-14.597656zm0 0" fill="#dde8ed"></path><path d="m201.292969 332.246094v173.890625c-80.78125-17.585938-147.320313-73.300781-179.816407-147.351563v-26.539062c0-31.378906 21.304688-57.785156 50.246094-65.515625 1.058594-.292969 2.121094-.554688 3.210938-.785157 2.871094-.625 5.820312-1.054687 8.816406-1.292968 1.828125-.148438 3.679688-.230469 5.550781-.230469h44.167969c4.941406 0 9.746094.519531 14.386719 1.523437.273437.054688.53125.117188.792969.179688.785156.175781 1.558593.363281 2.332031.574219.03125.011719.03125.011719.0625.019531 7.636719 2.039062 14.742187 5.382812 21.054687 9.769531 17.648438 12.246094 29.195313 32.652344 29.195313 55.757813zm0 0" fill="#3d4159"></path><path d="m151.207031 265.949219-.164062.769531-21.636719 100.601562c-1.117188.097657-2.242188.183594-3.367188.261719-1.582031.101563-3.175781.199219-4.777343.269531-3.273438.15625-6.5625.234376-9.867188.234376-3.394531 0-6.761719-.078126-10.113281-.242188-1.515625-.070312-3.03125-.15625-4.546875-.269531-1.132813-.078125-2.257813-.15625-3.382813-.25l-21.625-100.597657-.164062-.777343zm0 0" fill="#66baed"></path><path d="m129.59375 288.894531-18.207031 29.203125-18.207031-29.203125" fill="#dde8ed"></path><path d="m126.039062 367.582031c-1.582031.101563-11.339843 51.703125-14.648437 51.703125-3.394531 0-13.140625-51.597656-14.65625-51.710937l14.65625-57.078125zm0 0" fill="#dde8ed"></path><path d="m111.378906 292.1875-30.53125 16.96875-9.289062-43.203125 18.972656-11.175781" fill="#2ba1cf"></path><path d="m111.378906 292.1875 30.535156 16.96875 9.289063-43.203125-18.972656-11.175781" fill="#2ba1cf"></path><path d="m152.359375 324.25h9.683594l-41.554688 107.550781-8.179687 21.179688-9.070313-22.535157 8.347657-28.664062 39.394531-135.082031.230469-.753907 20.886718 6.824219zm0 0" fill="#2a2f4f"></path><path d="m120.488281 431.800781-8.179687 21.179688-9.070313-22.535157-42.746093-106.195312h9.695312l-19.746094-51.480469 20.894532-6.824219.222656.753907 40.027344 135.082031zm0 0" fill="#2a2f4f"></path><path d="m135.582031 238.296875v29.699219c0 10.871094-7.167969 20.058594-17.042969 23.109375-2.257812.703125-4.667968 1.082031-7.15625 1.082031-13.363281 0-24.195312-10.828125-24.195312-24.195312v-29.695313zm0 0" fill="#eab599"></path><path d="m135.582031 266.113281v1.882813c0 10.871094-7.167969 20.058594-17.042969 23.109375-8.90625-2.738281-15.605468-10.484375-16.84375-19.960938 1.617188.097657 3.242188.148438 4.875.148438 4.578126 0 9.066407-.363281 13.4375-1.082031 5.386719-.863282 10.59375-2.25 15.574219-4.097657zm0 0" fill="#f6caae"></path><path d="m45.003906 189.628906c0 11.203125-8.179687 20.492188-18.894531 22.214844-1.171875.191406-2.378906.289062-3.605469.289062-12.433594 0-22.503906-10.070312-22.503906-22.503906 0-12.429687 10.070312-22.503906 22.503906-22.503906 1.226563 0 2.433594.101562 3.605469.289062 10.714844 1.726563 18.894531 11.011719 18.894531 22.214844zm0 0" fill="#f6caae"></path><path d="m45.003906 189.628906c0 11.203125-8.179687 20.492188-18.894531 22.214844-1.949219-7.078125-2.988281-14.527344-2.988281-22.214844s1.039062-15.136718 2.988281-22.214844c10.714844 1.726563 18.894531 11.011719 18.894531 22.214844zm0 0" fill="#eab599"></path><path d="m30.546875 189.628906c0 4.441406-3.601563 8.042969-8.042969 8.042969s-8.042968-3.601563-8.042968-8.042969 3.601562-8.042968 8.042968-8.042968 8.042969 3.601562 8.042969 8.042968zm0 0" fill="#eab599"></path><path d="m177.761719 189.628906c0 11.203125 8.183593 20.492188 18.898437 22.214844 1.171875.191406 2.375.289062 3.605469.289062 12.429687 0 22.5-10.070312 22.5-22.503906 0-12.429687-10.070313-22.503906-22.5-22.503906-1.230469 0-2.433594.101562-3.605469.289062-10.714844 1.726563-18.898437 11.011719-18.898437 22.214844zm0 0" fill="#f6caae"></path><path d="m177.761719 189.628906c0 11.203125 8.183593 20.492188 18.898437 22.214844 1.945313-7.078125 2.984375-14.527344 2.984375-22.214844s-1.039062-15.136718-2.984375-22.214844c-10.714844 1.726563-18.898437 11.011719-18.898437 22.214844zm0 0" fill="#eab599"></path><path d="m195.109375 145.789062v31.882813c0 41.664063-30.4375 76.226563-70.289063 82.640625-.132812.023438-.277343.042969-.410156.066406-4.238281.679688-8.589844 1.015625-13.027344 1.015625-46.238281 0-83.722656-37.484375-83.722656-83.722656v-31.882813c0-9.738281 1.660156-19.09375 4.730469-27.785156 11.449219-32.582031 42.496094-55.945312 78.992187-55.945312h.003907c4.433593 0 8.792969.34375 13.039062 1.011718 40.046875 6.261719 70.683594 40.914063 70.683594 82.71875zm0 0" fill="#eab599"></path><path d="m208.304688 189.628906c0 4.441406-3.597657 8.042969-8.039063 8.042969-4.445313 0-8.042969-3.601563-8.042969-8.042969s3.597656-8.042968 8.042969-8.042968c4.441406 0 8.039063 3.601562 8.039063 8.042968zm0 0" fill="#eab599"></path><path d="m195.109375 145.789062v31.882813c0 41.664063-30.4375 76.226563-70.289063 82.640625-.132812.023438-.277343.042969-.410156.066406-40.046875-6.257812-70.675781-40.910156-70.675781-82.707031v-31.882813c0-41.804687 30.636719-76.457031 70.691406-82.71875 40.046875 6.261719 70.683594 40.914063 70.683594 82.71875zm0 0" fill="#f6caae"></path><path d="m93.554688 172.796875c0 5.242187-4.253907 9.496094-9.5 9.496094-5.242188 0-9.496094-4.253907-9.496094-9.496094 0-5.246094 4.253906-9.5 9.496094-9.5 5.246093 0 9.5 4.253906 9.5 9.5zm0 0" fill="#3d4159"></path><path d="m148.210938 172.796875c0 5.242187-4.25 9.496094-9.496094 9.496094s-9.5-4.253907-9.5-9.496094c0-5.246094 4.253906-9.5 9.5-9.5s9.496094 4.253906 9.496094 9.5zm0 0" fill="#3d4159"></path><path d="m91.617188 171.121094c0 2.246094-1.820313 4.066406-4.070313 4.066406-2.246094 0-4.070313-1.820312-4.070313-4.066406 0-2.25 1.824219-4.070313 4.070313-4.070313 2.25 0 4.070313 1.820313 4.070313 4.070313zm0 0" fill="#fff"></path><path d="m146.742188 171.121094c0 2.246094-1.824219 4.066406-4.070313 4.066406s-4.070313-1.820312-4.070313-4.066406c0-2.25 1.824219-4.070313 4.070313-4.070313s4.070313 1.820313 4.070313 4.070313zm0 0" fill="#fff"></path><path d="m120.882812 192.984375h-18.996093c-2.261719 0-4.097657-1.832031-4.097657-4.097656 0-2.261719 1.835938-4.097657 4.097657-4.097657h18.996093c2.261719 0 4.097657 1.835938 4.097657 4.097657s-1.835938 4.097656-4.097657 4.097656zm0 0" fill="#eab599"></path><path d="m111.382812 218.90625c-7.007812 0-14.019531-1.757812-20.410156-5.269531-1.800781-.992188-2.460937-3.257813-1.46875-5.058594.992188-1.804687 3.253906-2.460937 5.058594-1.46875 10.535156 5.789063 23.113281 5.789063 33.648438 0 1.800781-.992187 4.066406-.335937 5.054687 1.46875.992187 1.800781.335937 4.066406-1.46875 5.058594-6.390625 3.511719-13.402344 5.269531-20.414063 5.269531zm0 0" fill="#eab599"></path><path d="m195.109375 116.855469v32.660156h-15.582031v-25.578125l-112.484375-20.902344-23.800781-4.425781v50.90625h-15.582032v-32.660156c0-37.230469 30.175782-67.40625 67.398438-67.40625h32.648437c.886719 0 1.773438.011719 2.660157.058593 35.988281 1.382813 64.742187 31.003907 64.742187 67.347657zm0 0" fill="#e8c934"></path><path d="m195.109375 116.855469v32.660156h-15.582031v-25.578125l-112.484375-20.902344c6.199219-29.765625 32.023437-52.320312 63.324219-53.527344 35.988281 1.382813 64.742187 31.003907 64.742187 67.347657zm0 0" fill="#ffe152"></path><path d="m481.195312 377.855469c-1.867187 3.445312-3.8125 6.84375-5.839843 10.1875-44.804688 74.28125-126.273438 123.953125-219.355469 123.953125-93.078125 0-174.546875-49.671875-219.351562-123.953125-2.027344-3.34375-3.972657-6.742188-5.84375-10.1875zm0 0" fill="#a35418"></path><path d="m490.757812 358.261719c-2.914062 6.6875-6.113281 13.21875-9.5625 19.59375-1.867187 3.445312-3.8125 6.84375-5.839843 10.1875h-438.707031c-2.027344-3.34375-3.972657-6.742188-5.84375-10.1875-3.445313-6.375-6.644532-12.90625-9.558594-19.59375zm0 0" fill="#cc7a3b"></path><path d="m498.980469 336.832031c-2.402344 7.207031-5.109375 14.273438-8.117188 21.179688-.828125.167969-1.671875.25-2.550781.25h-191.058594c-7.386718 0-13.375-5.988281-13.375-13.375 0-2.164063.511719-4.199219 1.421875-6.007813.648438-1.285156 1.492188-2.445312 2.496094-3.449218 2.425781-2.421876 5.769531-3.917969 9.457031-3.917969h191.058594c4.355469 0 8.242188 2.089843 10.667969 5.320312zm0 0" fill="#bfd5de"></path><path d="m498.980469 336.832031c-.722657 2.152344-1.460938 4.292969-2.234375 6.425781-2.300782 1.871094-5.238282 2.988282-8.433594 2.988282h-179.921875c-3.675781 0-7.007813-1.484375-9.421875-3.886719-1.890625-1.882813-1.945312-5.007813-.0625-6.898437.007812-.007813.019531-.019532.03125-.03125 2.421875-2.421876 5.765625-3.917969 9.453125-3.917969h179.921875c4.355469 0 8.242188 2.089843 10.667969 5.320312zm0 0" fill="#dde8ed"></path><path d="m422.707031 344.886719c0 3.699219-1.492187 7.042969-3.917969 9.457031-2.414062 2.421875-5.757812 3.917969-9.453124 3.917969h-33.105469c-7.386719 0-13.375-5.988281-13.375-13.375 0-1.367188.199219-2.683594.578125-3.917969.65625-2.121094 1.816406-4.011719 3.34375-5.539062 2.410156-2.421876 5.753906-3.917969 9.453125-3.917969h33.105469c6.027343 0 11.117187 3.980469 12.796874 9.457031.378907 1.234375.574219 2.550781.574219 3.917969zm0 0" fill="#bf8e75"></path><path d="m422.132812 340.96875c-.65625 2.121094-1.816406 4.011719-3.34375 5.539062-2.414062 2.421876-5.757812 3.917969-9.453124 3.917969h-33.105469c-6.027344 0-11.117188-3.980469-12.796875-9.457031.65625-2.121094 1.816406-4.011719 3.34375-5.539062 2.410156-2.421876 5.753906-3.917969 9.453125-3.917969h33.105469c6.027343 0 11.117187 3.984375 12.796874 9.457031zm0 0" fill="#d3a489"></path><path d="m285.296875 338.878906 15.441406-33.113281 6.8125 14.601563-12.191406 15.671874" fill="#bfd5de"></path><path d="m212.785156 344.886719c0 3.699219-1.496094 7.042969-3.917968 9.457031-2.425782 2.421875-5.769532 3.917969-9.457032 3.917969h-178.164062c-2.832032-6.488281-5.402344-13.125-7.699219-19.894531-.222656-.660157-.441406-1.316407-.660156-1.976563v-.007813l1.871093-4.003906.40625-.867187h184.246094c5.222656 0 9.757813 3 11.953125 7.367187.910157 1.808594 1.421875 3.847656 1.421875 6.007813zm0 0" fill="#2a2f4f"></path><path d="m211.351562 338.878906c-.644531 1.285156-1.492187 2.445313-2.496093 3.449219-2.421875 2.421875-5.765625 3.917969-9.457031 3.917969h-179.917969c-1.128907 0-2.214844-.148438-3.261719-.410156-.929688-2.464844-1.816406-4.960938-2.671875-7.46875-.222656-.660157-.441406-1.316407-.660156-1.976563l1.871093-4.011719c1.472657-.5625 3.0625-.867187 4.722657-.867187h179.917969c5.226562 0 9.761718 3 11.953124 7.367187zm0 0" fill="#3d4159"></path><path d="m133.800781 344.886719c0 3.699219-1.492187 7.042969-3.917969 9.457031-2.414062 2.421875-5.757812 3.917969-9.457031 3.917969h-33.101562c-7.386719 0-13.375-5.988281-13.375-13.375 0-1.367188.199219-2.683594.574219-3.917969.660156-2.121094 1.820312-4.011719 3.34375-5.539062 2.414062-2.421876 5.757812-3.917969 9.457031-3.917969h33.101562c6.03125 0 11.117188 3.980469 12.800781 9.457031.375 1.234375.574219 2.550781.574219 3.917969zm0 0" fill="#bf8e75"></path><path d="m133.226562 340.96875c-.65625 2.121094-1.816406 4.011719-3.34375 5.539062-2.414062 2.421876-5.757812 3.917969-9.457031 3.917969h-33.101562c-6.027344 0-11.117188-3.980469-12.800781-9.457031.660156-2.121094 1.820312-4.011719 3.34375-5.539062 2.414062-2.421876 5.757812-3.917969 9.457031-3.917969h33.101562c6.03125 0 11.117188 3.984375 12.800781 9.457031zm0 0" fill="#d3a489"></path><path d="m211.363281 338.878906-15.441406-33.113281-6.8125 14.601563 12.191406 15.671874" fill="#3d4159"></path><path d="m33.984375 320.363281-8.675781 11.148438-3.519532 4.527343-8.242187 2.328126c-.222656-.65625-.441406-1.316407-.660156-1.972657v-.011719l1.871093-4.003906.40625-.867187 12.007813-25.746094zm0 0" fill="#3d4159"></path></svg>