<svg fill="#fff" xmlns="http://www.w3.org/2000/svg" viewBox="-21 -21 682.66769 682" id="svg-4498" class="u-svg-content"><path d="m485 585.328125c-3.285156 0-6.511719 1.335937-8.835938 3.660156-2.324218 2.332031-3.664062 5.554688-3.664062 8.839844s1.332031 6.511719 3.664062 8.835937c2.324219 2.324219 5.550782 3.664063 8.835938 3.664063s6.515625-1.339844 8.832031-3.664063c2.332031-2.324218 3.667969-5.550781 3.667969-8.835937s-1.335938-6.515625-3.667969-8.839844c-2.324219-2.324219-5.546875-3.660156-8.832031-3.660156zm0 0"></path><path d="m637.277344 590.042969-92.925782-116.761719c-1.875-2.351562-4.546874-3.953125-7.511718-4.5-.414063-.082031-42.375-7.945312-100.335938-26.796875-38.832031-12.632813-70.894531-12.554687-95.28125.238281-9.25 4.855469-16.089844 10.921875-21.066406 16.753906-4.96875-5.832031-11.8125-11.898437-21.058594-16.753906-24.390625-12.792968-56.445312-12.871094-95.289062-.238281-57.957032 18.851563-99.921875 26.714844-100.332032 26.792969-2.96875.546875-5.632812 2.152344-7.507812 4.503906l-92.925781 116.761719c-2.9921878 3.757812-3.5625 8.886719-1.484375 13.214843 2.085937 4.320313 6.460937 7.070313 11.261718 7.070313h266.558594c5.351563 17.351563 21.542969 30 40.636719 30 19.097656 0 35.289063-12.648437 40.640625-30h73.929688c6.898437 0 12.5-5.601563 12.5-12.5 0-6.90625-5.601563-12.5-12.5-12.5h-76.074219l-24.566407-24.570313c3.136719-6.308593 10.8125-18.355468 26.5625-26.617187 24.289063-12.734375 58.066407-12.210937 100.402344 1.558594 65.714844 21.375 114.777344 31.832031 128.714844 34.613281l11.949219 15.015625h-65.742188c-6.902343 0-12.5 5.59375-12.5 12.5 0 6.898437 5.597657 12.5 12.5 12.5h91.664063c4.800781 0 9.175781-2.75 11.257812-7.070313 2.085938-4.328124 1.511719-9.457031-1.476562-13.214843zm-524.609375-97.597657c12.664062-2.582031 49.847656-10.742187 98.875-26.6875 34.082031-11.089843 61.617187-10.824218 79.640625.753907 10.5 6.75 15.023437 15.453125 16.476562 18.851562v37.578125c-4.589844-3.898437-9.953125-7.644531-16.238281-10.9375-30.472656-15.988281-70.761719-16.007812-119.746094-.078125-39.40625 12.816407-73.070312 21.691407-96.191406 27.238281zm-61.972657 77.867188c13.933594-2.78125 62.996094-13.238281 128.714844-34.609375 42.007813-13.667969 75.605469-14.28125 99.859375-1.839844 16.027344 8.222657 23.789063 20.195313 27.011719 26.667969l-24.792969 24.796875h-242.742187zm269.320313 45.015625c-9.0625 0-16.539063-6.917969-17.421875-15.746094l17.40625-17.410156 17.441406 17.441406c-.898437 8.816407-8.367187 15.714844-17.425781 15.714844zm148.628906-103.398437c-48.984375-15.933594-89.273437-15.910157-119.742187.074218-6.289063 3.292969-11.65625 7.042969-16.242188 10.9375v-37.609375c1.570313-3.671875 6.980469-14.046875 20.171875-20.96875 17.945313-9.410156 44.203125-8.925781 75.941407 1.394531 49.03125 15.945313 86.210937 24.105469 98.878906 26.6875l37.1875 46.730469c-23.101563-5.542969-56.75-14.414062-96.195313-27.246093zm0 0"></path><path d="m67.902344 424.089844c1.457031 5.628906 6.53125 9.367187 12.09375 9.367187 1.035156 0 2.089844-.128906 3.140625-.402343 6.683593-1.730469 10.695312-8.550782 8.96875-15.234376l-67.5-260.621093c-1.734375-6.683594-8.558594-10.699219-15.234375-8.96875-6.683594 1.730469-10.699219 8.554687-8.96875 15.234375zm0 0"></path><path d="m556.867188 433.054688c1.046874.273437 2.101562.402343 3.136718.402343 5.5625 0 10.636719-3.738281 12.097656-9.367187l67.5-260.625c1.726563-6.679688-2.285156-13.503906-8.972656-15.234375-6.683594-1.730469-13.5 2.285156-15.234375 8.96875l-67.5 260.621093c-1.726562 6.683594 2.285157 13.503907 8.972657 15.234376zm0 0"></path><path d="m125.796875 41.148438c6.902344 0 12.5-5.601563 12.5-12.5v-15.816407c0-6.898437-5.597656-12.5-12.5-12.5-6.898437 0-12.5 5.601563-12.5 12.5v15.816407c0 6.898437 5.601563 12.5 12.5 12.5zm0 0"></path><path d="m125.796875 116.925781c6.902344 0 12.5-5.597656 12.5-12.5v-15.8125c0-6.902343-5.597656-12.5-12.5-12.5-6.898437 0-12.5 5.597657-12.5 12.5v15.8125c0 6.902344 5.601563 12.5 12.5 12.5zm0 0"></path><path d="m155.78125 71.128906h15.8125c6.902344 0 12.5-5.59375 12.5-12.5 0-6.902344-5.597656-12.5-12.5-12.5h-15.8125c-6.902344 0-12.5 5.597656-12.5 12.5 0 6.90625 5.597656 12.5 12.5 12.5zm0 0"></path><path d="m80.003906 71.128906h15.8125c6.902344 0 12.5-5.59375 12.5-12.5 0-6.902344-5.597656-12.5-12.5-12.5h-15.8125c-6.902344 0-12.5 5.597656-12.5 12.5 0 6.90625 5.597656 12.5 12.5 12.5zm0 0"></path><path d="m457.460938 274.695312c0-6.902343-5.59375-12.5-12.5-12.5-6.902344 0-12.5 5.597657-12.5 12.5v15.8125c0 6.902344 5.597656 12.496094 12.5 12.496094 6.90625 0 12.5-5.59375 12.5-12.496094zm0 0"></path><path d="m444.960938 337.976562c-6.902344 0-12.5 5.59375-12.5 12.492188v15.816406c0 6.898438 5.597656 12.5 12.5 12.5 6.90625 0 12.5-5.601562 12.5-12.5v-15.816406c0-6.898438-5.59375-12.492188-12.5-12.492188zm0 0"></path><path d="m474.945312 307.988281c-6.902343 0-12.5 5.601563-12.5 12.5 0 6.90625 5.597657 12.5 12.5 12.5h15.8125c6.902344 0 12.5-5.59375 12.5-12.5 0-6.898437-5.597656-12.5-12.5-12.5zm0 0"></path><path d="m414.980469 307.988281h-15.816407c-6.898437 0-12.5 5.601563-12.5 12.5 0 6.90625 5.601563 12.5 12.5 12.5h15.816407c6.898437 0 12.5-5.59375 12.5-12.5 0-6.898437-5.601563-12.5-12.5-12.5zm0 0"></path><path d="m127.015625 192.96875c-4.707031.683594-8.617187 3.980469-10.085937 8.507812-1.476563 4.527344-.246094 9.492188 3.160156 12.8125l35.746094 34.84375-8.441407 49.199219c-.800781 4.6875 1.125 9.429688 4.972657 12.222657 2.179687 1.585937 4.757812 2.386718 7.351562 2.386718 1.992188 0 3.984375-.472656 5.8125-1.4375l44.1875-23.226562 44.179688 23.226562c4.207031 2.214844 9.316406 1.847656 13.164062-.949218 3.847656-2.792969 5.773438-7.535157 4.972656-12.222657l-8.4375-49.199219 35.742188-34.84375c3.410156-3.320312 4.636718-8.285156 3.164062-12.8125-1.46875-4.527343-5.378906-7.824218-10.089844-8.507812l-49.394531-7.175781-22.097656-44.765625c-2.101563-4.261719-6.449219-6.96875-11.203125-6.96875-4.761719 0-9.109375 2.707031-11.210938 6.96875l-22.089843 44.765625zm68.90625 9.777344 13.789063-27.941406 13.796874 27.941406c1.820313 3.691406 5.335938 6.25 9.40625 6.839844l30.835938 4.476562-22.3125 21.753906c-2.945312 2.871094-4.289062 7.007813-3.59375 11.066406l5.265625 30.710938-27.578125-14.5c-3.640625-1.914062-7.992188-1.914062-11.632812 0l-27.585938 14.5 5.269531-30.710938c.699219-4.058593-.648437-8.195312-3.59375-11.066406l-22.3125-21.753906 30.832031-4.476562c4.074219-.589844 7.59375-3.148438 9.414063-6.839844zm0 0"></path><path d="m377.738281 94.917969 36.199219 11.253906 11.25 36.191406c1.410156 4.546875 5.277344 7.890625 9.980469 8.640625.652343.101563 1.308593.148438 1.957031.148438 4.011719 0 7.835938-1.9375 10.199219-5.28125l21.886719-30.941406 37.898437.480468c4.726563.039063 9.136719-2.585937 11.300781-6.824218 2.15625-4.238282 1.722656-9.335938-1.125-13.148438l-22.671875-30.378906 12.175781-35.898438c1.527344-4.5.363282-9.484375-3-12.851562-3.363281-3.363282-8.347656-4.523438-12.851562-2.996094l-35.894531 12.171875-30.375-22.671875c-3.8125-2.8398438-8.910157-3.273438-13.148438-1.117188-4.242187 2.164063-6.886719 6.539063-6.828125 11.300782l.484375 37.898437-30.941406 21.878907c-3.886719 2.75-5.875 7.46875-5.132813 12.164062.746094 4.703125 4.09375 8.570312 8.636719 9.980469zm47.242188-27.40625c3.355469-2.375 5.332031-6.25 5.277343-10.367188l-.242187-19.144531 15.347656 11.449219c3.292969 2.460937 7.589844 3.144531 11.488281 1.820312l18.128907-6.144531-6.148438 18.128906c-1.320312 3.894532-.636719 8.191406 1.824219 11.488282l11.449219 15.347656-19.144531-.246094c-.054688 0-.109376 0-.164063 0-4.050781 0-7.859375 1.96875-10.203125 5.285156l-11.054688 15.628906-5.683593-18.28125c-1.222657-3.929687-4.296875-7.007812-8.222657-8.226562l-18.285156-5.683594zm0 0"></path><path d="m303.75 170.886719c6.90625 0 12.5-5.601563 12.5-12.5v-73.75c0-6.90625-5.59375-12.5-12.5-12.5-6.898438 0-12.5 5.59375-12.5 12.5v73.75c0 6.898437 5.597656 12.5 12.5 12.5zm0 0"></path><path d="m303.75 51.375c3.285156 0 6.515625-1.339844 8.839844-3.667969 2.324218-2.324219 3.660156-5.546875 3.660156-8.832031 0-3.292969-1.335938-6.515625-3.660156-8.839844-2.324219-2.324218-5.554688-3.660156-8.839844-3.660156s-6.511719 1.332031-8.835938 3.660156c-2.324218 2.324219-3.664062 5.546875-3.664062 8.839844 0 3.285156 1.339844 6.507812 3.664062 8.832031 2.324219 2.324219 5.550782 3.667969 8.835938 3.667969zm0 0"></path></svg>