<svg fill="#fff" xmlns="http://www.w3.org/2000/svg" viewBox="0 0 512 512" id="svg-68d4" class="u-svg-content"><path d="m512 256c0 23.480469-3.167969 46.226562-9.089844 67.835938-3.042968 11.105468-6.8125 21.898437-11.253906 32.347656-12.152344 28.546875-29.339844 54.441406-50.4375 76.539062-.753906.785156-1.503906 1.558594-2.257812 2.332032-8.796876 8.984374-18.253907 17.324218-28.285157 24.941406-1.160156.886718-2.339843 1.765625-3.519531 2.632812-3.886719 2.839844-7.859375 5.578125-11.902344 8.210938-7.261718 4.722656-14.773437 9.082031-22.519531 13.050781-1.335937.691406-2.683594 1.371094-4.03125 2.019531-8.371094 4.125-17.011719 7.792969-25.871094 10.980469-1.664062.597656-3.335937 1.179687-5.015625 1.746094-8.152344 2.757812-16.488281 5.109375-24.996094 7.03125-16.527343 3.75-33.664062 5.894531-51.242187 6.269531-1.847656.042969-3.707031.0625-5.578125.0625-.4375 0-.878906 0-1.316406-.011719-27.179688-.132812-53.351563-4.503906-77.886719-12.484375-21.359375-6.9375-41.492187-16.613281-59.96875-28.609375-4.523437-2.9375-8.941406-6.007812-13.257813-9.207031 0 0-.011718 0-.011718-.011719-4.597656-3.40625-9.058594-6.957031-13.414063-10.667969-6.144531-5.222656-12.027343-10.738281-17.640625-16.519531-9.933594-10.21875-19.035156-21.261719-27.175781-33.019531-4.671875-6.75-9.019531-13.738281-13.039063-20.9375 0-.011719-.011718-.011719-.011718-.019531-5.152344-9.226563-9.738282-18.800781-13.742188-28.683594-3.90625-9.6875-7.238281-19.65625-9.96875-29.882813-5.589844-21.046874-8.566406-43.144531-8.566406-65.945312 0-141.386719 114.613281-256 256-256s256 114.613281 256 256zm0 0" fill="#66baed"></path><path d="m438.960938 435.054688c-45.265626 46.246093-107.917969 75.398437-177.382813 76.882812v-6.730469c0-37.875 25.714844-69.734375 60.648437-79.078125 1.273438-.34375 2.558594-.65625 3.863282-.9375 3.472656-.753906 7.035156-1.277344 10.648437-1.570312 2.214844-.175782 4.441407-.269532 6.699219-.269532h53.308594c5.96875 0 11.765625.625 17.367187 1.839844.324219.0625.648438.132813.960938.207032.941406.21875 1.882812.449218 2.8125.699218.03125.011719.042969.011719.074219.023438 7.46875 1.996094 14.53125 5.035156 21 8.933594zm0 0" fill="#3d4159"></path><path d="m418.15625 425.191406-.195312.929688-7.285157 33.875c-1.160156.886718-2.339843 1.765625-3.519531 2.632812-19.519531 14.304688-41.140625 25.914063-64.324219 34.261719-1.664062.597656-3.335937 1.179687-5.015625 1.746094l-15.589844-72.507813-.199218-.9375zm0 0" fill="#66baed"></path><path d="m392.066406 452.890625-19.332031 31c-1.335937.691406-2.683594 1.371094-4.03125 2.019531l-20.585937-33.019531zm0 0" fill="#3d4159"></path><path d="m370.089844 456.863281-36.855469 20.480469-11.210937-52.148438 22.902343-13.488281" fill="#2ba1cf"></path><path d="m418.15625 425.199219-7.480469 34.796875c-1.160156.886718-2.339843 1.765625-3.519531 2.632812-3.886719 2.839844-7.859375 5.578125-11.902344 8.210938l-25.160156-13.980469 25.160156-45.148437zm0 0" fill="#2ba1cf"></path><path d="m441.21875 432.722656c-.753906.785156-1.503906 1.558594-2.257812 2.332032-9.820313 10.03125-20.457032 19.257812-31.804688 27.574218l10.730469-36.53125.269531-.90625zm0 0" fill="#2a2f4f"></path><path d="m342.832031 496.890625c-9.738281 3.511719-19.761719 6.457031-30.011719 8.777344l-4.148437-10.105469h11.695313l-23.835938-62.140625 25.222656-8.230469.273438.90625zm0 0" fill="#2a2f4f"></path><path d="m399.300781 391.816406v35.84375c0 13.121094-8.652343 24.214844-20.570312 27.898438-2.726563.84375-5.636719 1.304687-8.640625 1.304687-16.128906 0-29.203125-13.074219-29.203125-29.203125v-35.84375zm0 0" fill="#eab599"></path><path d="m399.300781 425.390625v2.269531c0 13.121094-8.652343 24.214844-20.570312 27.898438-10.753907-3.304688-18.835938-12.65625-20.332031-24.09375 1.953124.117187 3.914062.179687 5.886718.179687 5.523438 0 10.941406-.4375 16.21875-1.304687 6.5-1.046875 12.78125-2.71875 18.796875-4.949219zm0 0" fill="#f6caae"></path><path d="m289.976562 333.074219c0 13.523437-9.875 24.734375-22.808593 26.8125-1.414063.230469-2.867188.347656-4.351563.347656-15.003906 0-27.160156-12.15625-27.160156-27.160156 0-15.003907 12.15625-27.160157 27.160156-27.160157 1.484375 0 2.9375.117188 4.351563.347657 12.929687 2.082031 22.808593 13.292969 22.808593 26.8125zm0 0" fill="#f6caae"></path><path d="m289.976562 333.074219c0 13.523437-9.875 24.734375-22.808593 26.8125-2.351563-8.539063-3.605469-17.53125-3.605469-26.8125 0-9.277344 1.253906-18.269531 3.605469-26.808594 12.929687 2.078125 22.808593 13.289063 22.808593 26.808594zm0 0" fill="#eab599"></path><path d="m272.523438 333.074219c0 5.363281-4.347657 9.707031-9.707032 9.707031-5.363281 0-9.707031-4.34375-9.707031-9.707031 0-5.359375 4.34375-9.707031 9.707031-9.707031 5.359375 0 9.707032 4.347656 9.707032 9.707031zm0 0" fill="#eab599"></path><path d="m502.910156 323.835938c-3.042968 11.105468-6.8125 21.898437-11.253906 32.347656-4.148438 2.570312-9.039062 4.054687-14.285156 4.054687-1.484375 0-2.933594-.125-4.355469-.355469-12.925781-2.078124-22.8125-13.289062-22.8125-26.8125 0-13.519531 9.886719-24.722656 22.8125-26.8125 1.421875-.226562 2.871094-.34375 4.355469-.34375 11.765625 0 21.765625 7.472657 25.539062 17.921876zm0 0" fill="#f6caae"></path><path d="m450.207031 333.074219c0 13.523437 9.878907 24.734375 22.8125 26.8125 2.347657-8.539063 3.601563-17.53125 3.601563-26.8125 0-9.277344-1.253906-18.269531-3.601563-26.808594-12.933593 2.078125-22.8125 13.289063-22.8125 26.808594zm0 0" fill="#eab599"></path><path d="m471.148438 280.164062v38.480469c0 50.285157-36.738282 92.003907-84.839844 99.746094-.160156.027344-.332032.054687-.492188.082031-5.117187.816406-10.367187 1.222656-15.726562 1.222656-55.804688 0-101.046875-45.242187-101.046875-101.050781v-38.480469c0-11.75 2.003906-23.046874 5.707031-33.535156 13.820312-39.328125 51.292969-67.523437 95.339844-67.523437h.011718c5.347657 0 10.605469.414062 15.730469 1.222656 48.335938 7.550781 85.316407 49.378906 85.316407 99.835937zm0 0" fill="#eab599"></path><path d="m487.078125 333.074219c0 5.363281-4.347656 9.707031-9.707031 9.707031-5.363282 0-9.707032-4.34375-9.707032-9.707031 0-5.359375 4.34375-9.707031 9.707032-9.707031 5.359375 0 9.707031 4.347656 9.707031 9.707031zm0 0" fill="#eab599"></path><path d="m471.148438 280.164062v38.480469c0 50.285157-36.738282 92.003907-84.839844 99.746094-.160156.027344-.332032.054687-.492188.082031-48.335937-7.554687-85.308594-49.378906-85.308594-99.828125v-38.480469c0-50.457031 36.980469-92.285156 85.324219-99.835937 48.335938 7.550781 85.316407 49.375 85.316407 99.835937zm0 0" fill="#f6caae"></path><path d="m348.574219 312.757812c0 6.332032-5.132813 11.464844-11.464844 11.464844s-11.464844-5.132812-11.464844-11.464844c0-6.332031 5.132813-11.464843 11.464844-11.464843s11.464844 5.132812 11.464844 11.464843zm0 0" fill="#3d4159"></path><path d="m414.542969 312.757812c0 6.332032-5.132813 11.464844-11.464844 11.464844s-11.464844-5.132812-11.464844-11.464844c0-6.332031 5.132813-11.464843 11.464844-11.464843s11.464844 5.132812 11.464844 11.464843zm0 0" fill="#3d4159"></path><path d="m346.234375 310.734375c0 2.714844-2.199219 4.914063-4.910156 4.914063-2.714844 0-4.914063-2.199219-4.914063-4.914063 0-2.710937 2.199219-4.910156 4.914063-4.910156 2.710937 0 4.910156 2.199219 4.910156 4.910156zm0 0" fill="#fff"></path><path d="m412.769531 310.734375c0 2.714844-2.199219 4.914063-4.914062 4.914063-2.710938 0-4.910157-2.199219-4.910157-4.914063 0-2.710937 2.199219-4.910156 4.910157-4.910156 2.714843 0 4.914062 2.199219 4.914062 4.910156zm0 0" fill="#fff"></path><path d="m381.558594 337.125h-22.925782c-2.734374 0-4.949218-2.214844-4.949218-4.945312 0-2.730469 2.214844-4.945313 4.949218-4.945313h22.925782c2.730468 0 4.945312 2.214844 4.945312 4.945313 0 2.730468-2.214844 4.945312-4.945312 4.945312zm0 0" fill="#eab599"></path><path d="m370.09375 368.410156c-8.460938 0-16.921875-2.117187-24.636719-6.359375-2.175781-1.195312-2.96875-3.929687-1.773437-6.105469 1.195312-2.175781 3.929687-2.96875 6.105468-1.773437 12.714844 6.988281 27.898438 6.988281 40.613282 0 2.171875-1.195313 4.90625-.402344 6.105468 1.773437 1.195313 2.175782.402344 4.910157-1.773437 6.105469-7.714844 4.242188-16.179687 6.359375-24.640625 6.359375zm0 0" fill="#eab599"></path><path d="m471.148438 245.238281v39.421875h-18.808594v-30.871094l-135.765625-25.230468-28.726563-5.339844v61.4375h-18.808594v-39.417969c0-44.9375 36.421876-81.359375 81.351563-81.359375h39.40625c1.070313 0 2.140625.015625 3.210937.070313 43.4375 1.675781 78.140626 37.421875 78.140626 81.289062zm0 0" fill="#2a2f4f"></path><path d="m471.148438 245.238281v39.421875h-18.808594v-30.871094l-135.765625-25.230468c7.480469-35.925782 38.652343-63.152344 76.433593-64.609375 43.4375 1.675781 78.140626 37.421875 78.140626 81.289062zm0 0" fill="#3d4159"></path><path d="m254.683594 504.84375v7.144531c-27.179688-.132812-53.351563-4.503906-77.886719-12.484375-26.582031-8.632812-51.253906-21.503906-73.226563-37.816406-4.597656-3.40625-9.070312-6.96875-13.425781-10.679688-6.144531-5.222656-12.027343-10.738281-17.640625-16.519531 7.035156-4.460937 14.785156-7.910156 23.042969-10.113281 1.292969-.34375 2.601563-.667969 3.925781-.949219 3.535156-.765625 7.160156-1.296875 10.847656-1.601562 2.246094-.1875 4.515626-.269531 6.8125-.269531h54.242188c6.058594 0 11.972656.636718 17.667969 1.871093.324219.0625.660156.132813.972656.207031.960937.21875 1.921875.460938 2.863281.722657.03125 0 .050782 0 .070313.007812 9.386719 2.507813 18.109375 6.617188 25.863281 12.007813 21.679688 15.035156 35.871094 40.101562 35.871094 68.472656zm0 0" fill="#e8c934"></path><path d="m254.683594 504.84375v7.144531c-62.765625-.3125-120.175782-23.207031-164.539063-60.980469 10.792969-12.746093 25.359375-22.191406 41.972657-26.632812 1.296874-.34375 2.601562-.667969 3.929687-.949219 3.53125-.765625 7.15625-1.296875 10.84375-1.601562 2.246094-.1875 4.515625-.269531 6.8125-.269531h17.671875c6.058594 0 11.972656.636718 17.667969 1.871093.324219.0625.660156.132813.972656.207031.960937.21875 1.921875.460938 2.863281.722657.03125 0 .050782 0 .070313.007812 9.386719 2.507813 18.109375 6.617188 25.863281 12.007813 21.679688 15.035156 35.871094 40.101562 35.871094 68.472656zm0 0" fill="#ffe152"></path><path d="m193.160156 423.425781-.210937.9375-16.152344 75.140625c-26.582031-8.632812-51.253906-21.503906-73.226563-37.816406l-8.023437-37.3125-.210937-.949219zm0 0" fill="#f2f0ec"></path><path d="m144.25 455.648438-27.421875 15.246093c-4.523437-2.9375-8.941406-6.007812-13.257813-9.207031 0 0-.011718 0-.011718-.011719l-8.222656-38.242187 23.300781-13.730469zm0 0" fill="#d8d5d0"></path><path d="m144.246094 455.652344 37.5 20.839844 11.40625-53.058594-23.300782-13.726563" fill="#d8d5d0"></path><path d="m256.230469 275.851562v125.617188h-210.902344c-4.671875-6.75-9.019531-13.738281-13.039063-20.9375v-104.679688c0-12.757812 2.128907-25.265624 6.332032-37.164062 15.714844-44.742188 58.167968-74.804688 105.628906-74.804688 5.882812 0 11.753906.449219 17.449219 1.355469 26.078125 4.066407 49.996093 17.378907 67.34375 37.472657 17.53125 20.3125 27.1875 46.289062 27.1875 73.140624zm0 0" fill="#f74f4f"></path><path d="m78.347656 280.765625c0 44.425781 26.015625 95.835937 40.300782 120.703125h-73.320313c-4.671875-6.757812-9.027344-13.75-13.050781-20.957031v-104.660157c0-12.757812 2.132812-25.265624 6.332031-37.164062 15.632813-44.484375 57.6875-74.460938 104.824219-74.796875-34.417969.859375-65.085938 56.089844-65.085938 116.875zm0 0" fill="#dd3033"></path><path d="m173.976562 389.46875v36.46875c0 13.351562-8.804687 24.640625-20.929687 28.386719-2.777344.863281-5.734375 1.328125-8.796875 1.328125-16.410156 0-29.710938-13.300782-29.710938-29.714844v-36.46875zm0 0" fill="#eab599"></path><path d="m173.976562 423.628906v2.308594c0 13.351562-8.804687 24.640625-20.929687 28.386719-10.941406-3.363281-19.167969-12.875-20.6875-24.515625 1.984375.121094 3.980469.179687 5.984375.179687 5.625 0 11.136719-.445312 16.503906-1.324219 6.617188-1.0625 13.007813-2.765624 19.128906-5.035156zm0 0" fill="#f6caae"></path><path d="m62.734375 329.695312c0 13.761719-10.050781 25.164063-23.207031 27.285157-1.441406.226562-2.914063.355469-4.429688.355469-6.214844 0-11.941406-2.050782-16.5625-5.507813-3.90625-9.6875-7.238281-19.65625-9.96875-29.882813 3.34375-11.496093 13.960938-19.886718 26.53125-19.886718 1.515625 0 2.988282.125 4.429688.355468 13.15625 2.121094 23.207031 13.519532 23.207031 27.28125zm0 0" fill="#f6caae"></path><path d="m62.734375 329.699219c0 13.753906-10.046875 25.164062-23.207031 27.28125-2.390625-8.691407-3.667969-17.839844-3.667969-27.28125 0-9.441407 1.277344-18.589844 3.667969-27.285157 13.160156 2.117188 23.207031 13.527344 23.207031 27.285157zm0 0" fill="#eab599"></path><path d="m44.976562 329.699219c0 5.453125-4.421874 9.875-9.878906 9.875-5.453125 0-9.875-4.421875-9.875-9.875 0-5.457031 4.421875-9.878907 9.875-9.878907 5.457032 0 9.878906 4.421876 9.878906 9.878907zm0 0" fill="#eab599"></path><path d="m215.214844 294.410156v94.996094c-14.679688 14.015625-33.507813 23.722656-54.460938 27.097656-.164062.027344-.335937.054688-.5.082032-5.207031.835937-10.550781 1.246093-16 1.246093-56.785156 0-102.820312-46.035156-102.820312-102.820312v-39.15625c0-5.011719.355468-9.945313 1.050781-14.765625 24.464844 17.59375 59.539063 15.855468 81.886719-5.269532 7.402344-6.988281 12.542968-15.3125 15.453125-24.140624 1.621093 15.460937 8.691406 30.507812 21.222656 42.355468 14.921875 14.089844 34.636719 20.886719 54.167969 20.375zm0 0" fill="#eab599"></path><path d="m215.214844 294.410156v94.996094c-14.679688 14.015625-33.507813 23.722656-54.460938 27.097656-.164062.027344-.335937.054688-.5.082032-49.183594-7.683594-86.800781-50.242188-86.800781-101.574219v-39.15625c0-1.042969.019531-2.074219.054687-3.109375 18.132813 1.855468 36.960938-3.777344 50.867188-16.925782 7.398438-6.988281 12.542969-15.3125 15.449219-24.140624 1.621093 15.460937 8.691406 30.507812 21.226562 42.355468 14.917969 14.089844 34.632813 20.886719 54.164063 20.375zm0 0" fill="#f6caae"></path><path d="m199.476562 306.328125c0-9.433594-7.648437-17.078125-17.078124-17.078125-9.429688 0-17.078126 7.644531-17.078126 17.078125" fill="#eab599"></path><path d="m123.199219 306.328125c0-9.433594-7.644531-17.078125-17.074219-17.078125-9.433594 0-17.078125 7.644531-17.078125 17.078125" fill="#eab599"></path><path d="m117.789062 313.597656c0 6.441406-5.222656 11.664063-11.667968 11.664063-6.441406 0-11.664063-5.222657-11.664063-11.664063s5.222657-11.664062 11.664063-11.664062c6.445312 0 11.667968 5.222656 11.667968 11.664062zm0 0" fill="#3d4159"></path><path d="m194.0625 313.597656c0 6.441406-5.222656 11.664063-11.664062 11.664063-6.441407 0-11.664063-5.222657-11.664063-11.664063s5.222656-11.664062 11.664063-11.664062c6.441406 0 11.664062 5.222656 11.664062 11.664062zm0 0" fill="#3d4159"></path><path d="m155.925781 342.96875h-23.328125c-2.78125 0-5.03125-2.253906-5.03125-5.03125 0-2.78125 2.25-5.03125 5.03125-5.03125h23.328125c2.777344 0 5.03125 2.25 5.03125 5.03125 0 2.777344-2.253906 5.03125-5.03125 5.03125zm0 0" fill="#eab599"></path><path d="m144.261719 374.800781c-8.609375 0-17.222657-2.15625-25.070313-6.472656-2.214844-1.21875-3.023437-3.996094-1.804687-6.210937 1.21875-2.214844 4-3.019532 6.210937-1.804688 12.9375 7.113281 28.386719 7.113281 41.324219 0 2.210937-1.21875 4.996094-.410156 6.210937 1.804688 1.21875 2.214843.410157 4.992187-1.804687 6.210937-7.847656 4.316406-16.457031 6.472656-25.066406 6.472656zm0 0" fill="#eab599"></path><path d="m115.410156 311.539062c0 2.761719-2.238281 5-5 5-2.757812 0-4.996094-2.238281-4.996094-5 0-2.761718 2.238282-4.996093 4.996094-4.996093 2.761719 0 5 2.234375 5 4.996093zm0 0" fill="#fff"></path><path d="m192.257812 311.539062c0 2.761719-2.238281 5-5 5-2.757812 0-4.996093-2.238281-4.996093-5 0-2.761718 2.238281-4.996093 4.996093-4.996093 2.761719 0 5 2.234375 5 4.996093zm0 0" fill="#fff"></path><path d="m214.242188 342.007812c0 7.074219-5.734376 12.808594-12.808594 12.808594-7.074219 0-12.808594-5.734375-12.808594-12.808594 0-7.074218 5.734375-12.808593 12.808594-12.808593 7.074218 0 12.808594 5.734375 12.808594 12.808593zm0 0" fill="#eab599"></path><path d="m99.886719 342.007812c0 7.074219-5.734375 12.808594-12.808594 12.808594s-12.808594-5.734375-12.808594-12.808594c0-7.074218 5.734375-12.808593 12.808594-12.808593s12.808594 5.734375 12.808594 12.808593zm0 0" fill="#eab599"></path><g fill="#f2f0ec"><path d="m332.128906 142.726562h-159.4375c-22.625 0-40.960937-18.339843-40.960937-40.960937v-60.804687c0-22.621094 18.339843-40.960938 40.960937-40.960938h159.4375c22.621094 0 40.960938 18.339844 40.960938 40.960938v60.804687c0 22.621094-18.339844 40.960937-40.960938 40.960937zm0 0"></path><path d="m174.789062 154.703125c0 17-13.78125 30.78125-30.785156 30.78125-17 0-30.78125-13.78125-30.78125-30.78125 0-17.003906 13.78125-30.785156 30.78125-30.785156 17.003906 0 30.785156 13.78125 30.785156 30.785156zm0 0"></path><path d="m106.691406 185.644531c0 8.5-6.890625 15.390625-15.390625 15.390625s-15.390625-6.890625-15.390625-15.390625 6.890625-15.390625 15.390625-15.390625 15.390625 6.890625 15.390625 15.390625zm0 0"></path><path d="m396.683594 154.703125c0 17-13.785156 30.78125-30.785156 30.78125s-30.785157-13.78125-30.785157-30.78125c0-17.003906 13.785157-30.785156 30.785157-30.785156s30.785156 13.78125 30.785156 30.785156zm0 0"></path><path d="m433.996094 185.644531c0 8.5-6.894532 15.390625-15.394532 15.390625s-15.390624-6.890625-15.390624-15.390625 6.890624-15.390625 15.390624-15.390625 15.394532 6.890625 15.394532 15.390625zm0 0"></path>
</g><path d="m229.945312 71.363281c0 7.503907-6.082031 13.582031-13.585937 13.582031-7.5 0-13.582031-6.078124-13.582031-13.582031 0-7.5 6.082031-13.582031 13.582031-13.582031 7.503906 0 13.585937 6.082031 13.585937 13.582031zm0 0" fill="#3d4159"></path><path d="m265.992188 71.363281c0 7.503907-6.082032 13.582031-13.582032 13.582031-7.503906 0-13.585937-6.078124-13.585937-13.582031 0-7.5 6.082031-13.582031 13.585937-13.582031 7.5 0 13.582032 6.082031 13.582032 13.582031zm0 0" fill="#3d4159"></path><path d="m302.042969 71.363281c0 7.503907-6.082031 13.582031-13.585938 13.582031-7.5 0-13.582031-6.078124-13.582031-13.582031 0-7.5 6.082031-13.582031 13.582031-13.582031 7.503907 0 13.585938 6.082031 13.585938 13.582031zm0 0" fill="#3d4159"></path></svg>