<svg xmlns="http://www.w3.org/2000/svg" viewBox="0 0 512 512" id="svg-f7c0" class="u-svg-content"><path d="m512 256c0 7.929688-.367188 15.789062-1.066406 23.53125-7.792969 85.535156-57.65625 158.898438-128.730469 199.242188h-.011719c-15.046875 8.554687-31.054687 15.621093-47.8125 21-1.378906.449218-2.757812.878906-4.140625 1.296874-22.023437 6.667969-45.304687 10.4375-69.402343 10.878907-1.605469.039062-3.214844.050781-4.835938.050781-71.429688 0-136.035156-29.257812-182.46875-76.445312-42.625-43.300782-69.9375-101.710938-73.195312-166.453126-.222657-4.34375-.335938-8.714843-.335938-13.101562 0-41.640625 9.9375-80.957031 27.574219-115.710938 16.21875-31.933593 38.921875-60.019531 66.402343-82.496093 15.707032-12.863281 32.980469-23.886719 51.472657-32.757813 11.851562-5.683594 24.210937-10.480468 36.988281-14.304687 5.070312-1.523438 10.199219-2.882813 15.394531-4.09375 12.003907-2.792969 24.34375-4.734375 36.9375-5.769531 7-.574219 14.082031-.867188 21.230469-.867188 81.605469 0 154.269531 38.191406 201.152344 97.636719l.023437.03125c2.371094 2.996093 4.667969 6.046875 6.894531 9.164062 12.464844 17.34375 22.808594 36.308594 30.65625 56.515625v.011719c5.339844 13.761719 9.53125 28.097656 12.445313 42.894531v.007813c.167969.835937.324219 1.683593.480469 2.519531 2.851562 15.308594 4.347656 31.085938 4.347656 47.21875zm0 0" fill="#3fb777"></path><g fill="#2da365"><path d="m512 256c0 7.929688-.367188 15.789062-1.066406 23.53125-8.015625.03125-16.058594-2.613281-22.621094-8.015625-9.214844-7.585937-13.5625-18.734375-12.875-29.683594 0-.0625.011719-.136719.011719-.199219l-34.335938 38.304688-37.519531-33.644531-33.992188-30.46875-37.523437-33.644531 33.46875-37.347657.867187-.949219c-.082031.011719-.167968.019532-.238281.03125-10.324219 1.785157-21.328125-.984374-29.738281-8.527343-14.941406-13.382813-15.863281-36.589844-1.765625-51.125 12.765625-13.167969 33.800781-14.347657 47.960937-2.695313 9.214844 7.585938 13.5625 18.734375 12.871094 29.671875 0 .074219-.011718.148438-.011718.210938l34.335937-38.304688 27.324219 24.492188.023437.03125c2.371094 2.996093 4.667969 6.046875 6.894531 9.164062-9.644531.582031-19.039062 5.078125-25.621093 13.34375-11.285157 14.15625-9.945313 34.855469 3.042969 47.480469 14.53125 14.117188 37.75 13.207031 51.144531-1.746094.742187-.824218 1.433593-1.683594 2.089843-2.550781 5.339844 13.761719 9.53125 28.097656 12.445313 42.894531v.011719l-1.777344 1.972656-.867187.960938c.085937-.019531.167968-.03125.242187-.039063.949219-.167968 1.910157-.292968 2.882813-.378906 2.851562 15.308594 4.347656 31.085938 4.347656 47.21875zm0 0"></path><path d="m234.914062 66.152344c-10.980468 4.679687-22.882812 3.40625-32.277343-2.246094-.050781-.03125-.113281-.074219-.175781-.105469l18.167968 48.128907-47.144531 17.792968-42.703125 16.125-47.148438 17.804688-17.71875-46.917969-.453124-1.199219c-.019532.074219-.050782.15625-.070313.230469-3.175781 9.976563-10.710937 18.472656-21.273437 22.453125-5.464844 2.070312-11.121094 2.695312-16.542969 2.070312 16.21875-31.933593 38.921875-60.019531 66.402343-82.496093 8.195313 4.136719 17.953126 5.128906 27.179688 2.058593 15.390625-5.121093 24.796875-19.601562 24.292969-34.816406 11.851562-5.683594 24.210937-10.480468 36.988281-14.304687l4.191406 11.109375.449219 1.210937c.019531-.082031.050781-.15625.074219-.230469 1.972656-6.21875 5.640625-11.847656 10.679687-16.183593 12.003907-2.792969 24.34375-4.734375 36.9375-5.769531 9.027344 3.8125 16.464844 11.347656 19.839844 21.484374 5.808594 17.394532-2.839844 36.613282-19.695313 43.800782zm0 0"></path><path d="m173.746094 411.960938c-10.042969 15.351562-30.46875 20.492187-46.570313 11.722656-10.492187-5.703125-16.875-15.828125-18.265625-26.707032-.011718-.0625-.011718-.136718-.019531-.199218l-26.480469 44.105468-8.878906-5.328124c-42.625-43.300782-69.9375-101.710938-73.195312-166.453126 2.882812 4.472657 4.710937 9.542969 5.378906 14.765626.011718.074218.011718.148437.023437.210937l26.476563-44.117187 43.207031 25.933593c-10.628906 1.703125-20.398437 8.203125-25.851563 18.621094-8.402343 16.039063-3.167968 36.109375 11.964844 46.046875 16.945313 11.117188 39.570313 5.820312 49.902344-11.386719 5.601562-9.34375 6.40625-20.230469 3.125-29.78125l43.207031 25.933594-2.769531 4.621094-23.03125 38.378906-.667969 1.105469c.074219-.03125.15625-.0625.230469-.082032 9.800781-3.710937 21.128906-3.074218 30.816406 2.738282 17.195313 10.320312 22.496094 32.933594 11.398438 49.871094zm0 0"></path><path d="m442.566406 391.335938-23.5625 44.542968c-2.277344-10.511718-9.277344-19.914062-19.988281-24.804687-16.46875-7.523438-36.226563-1.222657-45.328125 14.429687-10.1875 17.523438-3.6875 39.820313 14.054688 49.214844 4.628906 2.445312 9.550781 3.761719 14.449218 4.054688-15.046875 8.554687-31.054687 15.621093-47.8125 21l-4.621094-2.445313-1.136718-.605469c.03125.074219.0625.148438.09375.21875.59375 1.347656 1.105468 2.730469 1.523437 4.128906-22.023437 6.667969-45.304687 10.4375-69.402343 10.878907-.113282-5.351563.972656-10.785157 3.398437-15.882813 5.128906-10.785156 14.890625-17.703125 25.683594-19.675781.0625-.011719.136719-.023437.199219-.042969l-45.476563-24.054687 23.574219-44.542969 21.347656-40.351562 23.5625-44.546876 44.335938 23.449219 1.128906.605469c-.03125-.074219-.066406-.144531-.085938-.21875-4.230468-9.59375-4.199218-20.941406 1.078125-30.917969 9.382813-17.734375 31.667969-24.242187 49.183594-14.074219 15.859375 9.191407 22.097656 29.328126 14.21875 45.867188-5.140625 10.785156-14.898437 17.703125-25.683594 19.675781-.074219.023438-.144531.03125-.207031.042969zm0 0"></path>
</g><path d="m382.121094 449.578125v29.246094c-25.550782 14.503906-53.84375 24.722656-83.90625 29.707031-6.449219 1.066406-12.96875 1.902344-19.5625 2.476562-4.105469.367188-8.242188.625-12.414063.785157-3.394531.144531-6.8125.207031-10.238281.207031-7.648438 0-15.203125-.335938-22.675781-.992188-18.953125-1.660156-37.3125-5.390624-54.855469-10.960937-.628906-.199219-1.265625-.40625-1.890625-.617187-16.34375-5.316407-31.976563-12.257813-46.699219-20.605469v-29.246094c0-44.011719 29.886719-81.042969 70.480469-91.898437 1.484375-.398438 2.976563-.761719 4.492187-1.085938 4.035157-.878906 8.171876-1.484375 12.382813-1.828125 2.570313-.210937 5.160156-.316406 7.785156-.316406h61.953125c6.925782 0 13.675782.734375 20.175782 2.144531.375.070312.75.15625 1.117187.238281 1.097656.25 2.195313.523438 3.269531.816407.03125.007812.054688.007812.085938.019531 10.710937 2.863281 20.675781 7.554687 29.539062 13.710937 24.753906 17.175782 40.960938 45.796875 40.960938 78.199219zm0 0" fill="#dd3033"></path><path d="m382.121094 449.578125v29.246094c-25.550782 14.503906-53.84375 24.722656-83.90625 29.707031-6.449219 1.066406-12.96875 1.902344-19.5625 2.476562-4.105469.367188-8.242188.625-12.414063.785157-3.394531.144531-6.8125.207031-10.238281.207031-7.648438 0-15.203125-.335938-22.675781-.992188-18.953125-1.660156-37.3125-5.390624-54.855469-10.960937-.628906-.199219-1.265625-.40625-1.890625-.617187v-49.851563c0-44.011719 29.882813-81.042969 70.476563-91.898437 1.484374-.398438 2.980468-.761719 4.492187-1.085938 4.035156-.878906 8.171875-1.484375 12.382813-1.828125 2.570312-.210937 5.164062-.316406 7.785156-.316406h15.257812c6.925782 0 13.675782.734375 20.175782 2.144531.375.070312.75.15625 1.117187.238281 1.097656.25 2.195313.523438 3.269531.816407.03125.007812.054688.007812.085938.019531 10.710937 2.863281 20.675781 7.554687 29.539062 13.710937 24.753906 17.175782 40.960938 45.796875 40.960938 78.199219zm0 0" fill="#f74f4f"></path><path d="m311.847656 356.589844-.230468 1.078125-32.96875 153.339843c-7.457032.65625-15.023438.992188-22.652344.992188-7.648438 0-15.203125-.335938-22.671875-.992188l-32.96875-153.328124-.230469-1.089844zm0 0" fill="#f2f0ec"></path><path d="m255.984375 393.394531-42.828125 23.804688-13.027344-60.605469 26.609375-15.675781" fill="#d8d5d0"></path><path d="m255.984375 393.394531 42.832031 23.804688 13.027344-60.605469-26.613281-15.675781" fill="#d8d5d0"></path><path d="m128.109375 331.515625v-143.476563c0-14.578124 2.433594-28.863281 7.230469-42.453124 17.953125-51.101563 66.445312-85.441407 120.652344-85.441407 6.714843 0 13.414062.519531 19.925781 1.546875 29.785156 4.65625 57.109375 19.859375 76.921875 42.808594 20.019531 23.191406 31.046875 52.859375 31.046875 83.539062v143.476563" fill="#ffe152"></path><path d="m180.714844 193.640625c0 50.75 29.71875 109.464844 46.039062 137.875h-98.648437v-143.476563c0-14.574218 2.433593-28.859374 7.230469-42.453124 17.847656-50.804688 65.890624-85.042969 119.722656-85.429688-39.320313.980469-74.34375 64.0625-74.34375 133.484375zm0 0" fill="#e8c934"></path><path d="m289.941406 317.800781v41.65625c0 15.25-10.054687 28.140625-23.90625 32.421875-3.167968.980469-6.546875 1.515625-10.042968 1.515625-18.742188 0-33.9375-15.195312-33.9375-33.9375v-41.65625zm0 0" fill="#eab599"></path><path d="m289.941406 356.816406v2.640625c0 15.25-10.054687 28.140625-23.90625 32.421875-12.496094-3.84375-21.890625-14.707031-23.625-28.003906 2.265625.140625 4.546875.210938 6.835938.210938 6.421875 0 12.71875-.511719 18.851562-1.519532 7.554688-1.210937 14.855469-3.15625 21.84375-5.75zm0 0" fill="#f6caae"></path><path d="m162.886719 249.535156c0 15.710938-11.476563 28.742188-26.507813 31.160156-1.640625.265626-3.332031.402344-5.054687.402344-17.4375 0-31.566407-14.125-31.566407-31.5625s14.128907-31.566406 31.566407-31.566406c1.722656 0 3.414062.140625 5.054687.40625 15.03125 2.417969 26.507813 15.445312 26.507813 31.160156zm0 0" fill="#f6caae"></path><path d="m162.886719 249.535156c0 15.710938-11.476563 28.742188-26.507813 31.160156-2.730468-9.929687-4.1875-20.378906-4.1875-31.160156 0-10.785156 1.457032-21.234375 4.1875-31.160156 15.03125 2.417969 26.507813 15.445312 26.507813 31.160156zm0 0" fill="#eab599"></path><path d="m142.605469 249.535156c0 6.230469-5.050781 11.28125-11.28125 11.28125s-11.285157-5.050781-11.285157-11.28125c0-6.230468 5.054688-11.28125 11.285157-11.28125s11.28125 5.050782 11.28125 11.28125zm0 0" fill="#eab599"></path><path d="m337.046875 209.230469v108.5c-16.773437 16.007812-38.277344 27.09375-62.203125 30.949219-.1875.03125-.386719.0625-.574219.097656-5.945312.949218-12.050781 1.417968-18.277343 1.417968-64.855469 0-117.4375-52.578124-117.4375-117.433593v-44.722657c0-5.726562.410156-11.359374 1.203124-16.863281 27.941407 20.089844 68.003907 18.105469 93.527344-6.019531 8.457032-7.984375 14.328125-17.492188 17.648438-27.574219 1.851562 17.65625 9.929687 34.847657 24.242187 48.378907 17.042969 16.089843 39.5625 23.855468 61.871094 23.269531zm0 0" fill="#eab599"></path><path d="m337.046875 209.230469v108.5c-16.773437 16.007812-38.277344 27.09375-62.203125 30.949219-.1875.03125-.386719.0625-.574219.097656-56.175781-8.777344-99.140625-57.386719-99.140625-116.015625v-44.722657c0-1.191406.019532-2.371093.0625-3.554687 20.710938 2.121094 42.214844-4.3125 58.09375-19.328125 8.457032-7.984375 14.328125-17.492188 17.648438-27.574219 1.851562 17.65625 9.929687 34.847657 24.242187 48.378907 17.042969 16.089843 39.5625 23.855468 61.871094 23.269531zm0 0" fill="#f6caae"></path><path d="m319.066406 222.84375c0-10.773438-8.730468-19.507812-19.503906-19.507812s-19.503906 8.734374-19.503906 19.507812" fill="#eab599"></path><path d="m231.949219 222.84375c0-10.773438-8.734375-19.507812-19.503907-19.507812-10.773437 0-19.507812 8.734374-19.507812 19.507812" fill="#eab599"></path><path d="m225.765625 231.144531c0 7.359375-5.964844 13.324219-13.320313 13.324219-7.359374 0-13.324218-5.964844-13.324218-13.324219 0-7.355469 5.964844-13.320312 13.324218-13.320312 7.355469 0 13.320313 5.964843 13.320313 13.320312zm0 0" fill="#3d4159"></path><path d="m312.882812 231.144531c0 7.359375-5.964843 13.324219-13.320312 13.324219-7.359375 0-13.324219-5.964844-13.324219-13.324219 0-7.355469 5.964844-13.320312 13.324219-13.320312 7.355469 0 13.320312 5.964843 13.320312 13.320312zm0 0" fill="#3d4159"></path><path d="m269.324219 264.6875h-26.644531c-3.171876 0-5.746094-2.570312-5.746094-5.746094 0-3.171875 2.574218-5.746094 5.746094-5.746094h26.644531c3.175781 0 5.75 2.574219 5.75 5.746094 0 3.175782-2.574219 5.746094-5.75 5.746094zm0 0" fill="#eab599"></path><path d="m256.003906 301.046875c-9.835937 0-19.667968-2.460937-28.632812-7.390625-2.527344-1.390625-3.453125-4.566406-2.0625-7.09375s4.566406-3.449219 7.09375-2.0625c14.777344 8.125 32.421875 8.125 47.199218 0 2.527344-1.390625 5.703126-.46875 7.09375 2.0625 1.390626 2.527344.46875 5.703125-2.0625 7.09375-8.960937 4.929688-18.796874 7.390625-28.628906 7.390625zm0 0" fill="#eab599"></path><path d="m223.050781 228.796875c0 3.152344-2.554687 5.707031-5.707031 5.707031-3.15625 0-5.710938-2.554687-5.710938-5.707031 0-3.15625 2.554688-5.710937 5.710938-5.710937 3.152344 0 5.707031 2.554687 5.707031 5.710937zm0 0" fill="#fff"></path><path d="m310.820312 228.796875c0 3.152344-2.554687 5.707031-5.707031 5.707031-3.152343 0-5.707031-2.554687-5.707031-5.707031 0-3.15625 2.554688-5.710937 5.707031-5.710937 3.152344 0 5.707031 2.554687 5.707031 5.710937zm0 0" fill="#fff"></path><path d="m335.933594 263.59375c0 8.082031-6.550782 14.628906-14.628906 14.628906-8.078126 0-14.628907-6.546875-14.628907-14.628906 0-8.078125 6.550781-14.628906 14.628907-14.628906 8.078124 0 14.628906 6.550781 14.628906 14.628906zm0 0" fill="#eab599"></path><path d="m205.320312 263.59375c0 8.082031-6.550781 14.628906-14.628906 14.628906s-14.628906-6.546875-14.628906-14.628906c0-8.078125 6.550781-14.628906 14.628906-14.628906s14.628906 6.550781 14.628906 14.628906zm0 0" fill="#eab599"></path><path d="m51.148438 346.023438 11.050781 49.164062 50.191406-11.28125c-.042969.050781-.089844.105469-.128906.15625-6.914063 8.515625-9.835938 20.117188-6.726563 31.648438 4.773438 17.695312 22.59375 28.9375 40.628906 25.617187 19.917969-3.664063 32.625-23.097656 28.21875-42.671875-2.476562-11.015625-9.832031-19.65625-19.277343-24.195312-.070313-.035157-.144531-.074219-.214844-.105469l1.253906-.28125 48.929688-11-5.257813 1.175781 5.257813-1.175781-11.054688-49.167969c-4.652343 8.96875-13.078125 15.898438-23.707031 18.289062-19.589844 4.402344-39.03125-8.316406-42.679688-28.253906-3.257812-17.808594 7.660157-35.445312 25.0625-40.433594 11.3125-3.246093 22.75-.65625 31.3125 5.855469l-11.050781-49.164062-50.191406 11.28125c.042969-.050781.089844-.105469.128906-.15625 6.910157-8.515625 9.832031-20.117188 6.726563-31.648438-4.773438-17.699219-22.597656-28.9375-40.628906-25.617187-19.917969 3.664062-32.625 23.097656-28.222657 42.671875 2.480469 11.015625 9.832031 19.65625 19.28125 24.195312.066407.035157.140625.074219.214844.105469l-1.253906.28125-48.929688 11 11.054688 49.167969" fill="#3d4159"></path><path d="m163.316406 449.078125v29.746094c0 5.234375-1.515625 10.125-4.117187 14.242187-10.113281-4.136718-19.902344-8.890625-29.320313-14.242187-6.820312-3.867188-13.445312-8.046875-19.851562-12.507813v-17.238281c0-14.714844 11.933594-26.648437 26.644531-26.648437 3.511719 0 6.855469.679687 9.925781 1.914062 3.367188 1.347656 6.394532 3.363281 8.914063 5.894531 4.816406 4.824219 7.804687 11.480469 7.804687 18.839844zm0 0" fill="#eab599"></path><path d="m163.316406 449.078125v29.746094c0 5.234375-1.515625 10.125-4.117187 14.242187-10.113281-4.136718-19.902344-8.890625-29.320313-14.242187v-29.746094c0-11.203125 6.917969-20.796875 16.71875-24.734375 3.367188 1.347656 6.394532 3.363281 8.914063 5.894531 4.816406 4.824219 7.804687 11.480469 7.804687 18.839844zm0 0" fill="#f6caae"></path></svg>